G04 Layer_Physical_Order=2*
G04 Layer_Color=16711680*
%FSLAX24Y24*%
%MOIN*%
G70*
G01*
G75*
%ADD25R,0.0551X0.0433*%
G04:AMPARAMS|DCode=27|XSize=55.1mil|YSize=39.4mil|CornerRadius=4.9mil|HoleSize=0mil|Usage=FLASHONLY|Rotation=270.000|XOffset=0mil|YOffset=0mil|HoleType=Round|Shape=RoundedRectangle|*
%AMROUNDEDRECTD27*
21,1,0.0551,0.0295,0,0,270.0*
21,1,0.0453,0.0394,0,0,270.0*
1,1,0.0098,-0.0148,-0.0226*
1,1,0.0098,-0.0148,0.0226*
1,1,0.0098,0.0148,0.0226*
1,1,0.0098,0.0148,-0.0226*
%
%ADD27ROUNDEDRECTD27*%
G04:AMPARAMS|DCode=33|XSize=55.1mil|YSize=39.4mil|CornerRadius=4.9mil|HoleSize=0mil|Usage=FLASHONLY|Rotation=0.000|XOffset=0mil|YOffset=0mil|HoleType=Round|Shape=RoundedRectangle|*
%AMROUNDEDRECTD33*
21,1,0.0551,0.0295,0,0,0.0*
21,1,0.0453,0.0394,0,0,0.0*
1,1,0.0098,0.0226,-0.0148*
1,1,0.0098,-0.0226,-0.0148*
1,1,0.0098,-0.0226,0.0148*
1,1,0.0098,0.0226,0.0148*
%
%ADD33ROUNDEDRECTD33*%
G04:AMPARAMS|DCode=34|XSize=51.2mil|YSize=31.5mil|CornerRadius=3.9mil|HoleSize=0mil|Usage=FLASHONLY|Rotation=0.000|XOffset=0mil|YOffset=0mil|HoleType=Round|Shape=RoundedRectangle|*
%AMROUNDEDRECTD34*
21,1,0.0512,0.0236,0,0,0.0*
21,1,0.0433,0.0315,0,0,0.0*
1,1,0.0079,0.0217,-0.0118*
1,1,0.0079,-0.0217,-0.0118*
1,1,0.0079,-0.0217,0.0118*
1,1,0.0079,0.0217,0.0118*
%
%ADD34ROUNDEDRECTD34*%
%ADD36C,0.0100*%
%ADD37C,0.0300*%
%ADD38C,0.0080*%
%ADD39C,0.0200*%
%ADD40C,0.0120*%
%ADD42C,0.0000*%
%ADD43C,0.1575*%
%ADD44C,0.0591*%
%ADD45R,0.0591X0.0591*%
%ADD46R,0.0591X0.0591*%
%ADD47C,0.0256*%
%ADD48C,0.0315*%
%ADD49C,0.0236*%
%ADD50C,0.0276*%
%ADD51C,0.0394*%
%ADD52C,0.0260*%
G04:AMPARAMS|DCode=53|XSize=32mil|YSize=27.6mil|CornerRadius=0.1mil|HoleSize=0mil|Usage=FLASHONLY|Rotation=0.000|XOffset=0mil|YOffset=0mil|HoleType=Round|Shape=RoundedRectangle|*
%AMROUNDEDRECTD53*
21,1,0.0320,0.0273,0,0,0.0*
21,1,0.0317,0.0276,0,0,0.0*
1,1,0.0003,0.0158,-0.0136*
1,1,0.0003,-0.0158,-0.0136*
1,1,0.0003,-0.0158,0.0136*
1,1,0.0003,0.0158,0.0136*
%
%ADD53ROUNDEDRECTD53*%
G04:AMPARAMS|DCode=54|XSize=129.9mil|YSize=27.6mil|CornerRadius=0.1mil|HoleSize=0mil|Usage=FLASHONLY|Rotation=270.000|XOffset=0mil|YOffset=0mil|HoleType=Round|Shape=RoundedRectangle|*
%AMROUNDEDRECTD54*
21,1,0.1299,0.0273,0,0,270.0*
21,1,0.1296,0.0276,0,0,270.0*
1,1,0.0003,-0.0136,-0.0648*
1,1,0.0003,-0.0136,0.0648*
1,1,0.0003,0.0136,0.0648*
1,1,0.0003,0.0136,-0.0648*
%
%ADD54ROUNDEDRECTD54*%
G04:AMPARAMS|DCode=55|XSize=70.9mil|YSize=45.3mil|CornerRadius=5.7mil|HoleSize=0mil|Usage=FLASHONLY|Rotation=0.000|XOffset=0mil|YOffset=0mil|HoleType=Round|Shape=RoundedRectangle|*
%AMROUNDEDRECTD55*
21,1,0.0709,0.0340,0,0,0.0*
21,1,0.0595,0.0453,0,0,0.0*
1,1,0.0113,0.0298,-0.0170*
1,1,0.0113,-0.0298,-0.0170*
1,1,0.0113,-0.0298,0.0170*
1,1,0.0113,0.0298,0.0170*
%
%ADD55ROUNDEDRECTD55*%
%ADD56R,0.0630X0.0709*%
%ADD57R,0.0394X0.0472*%
%ADD58R,0.0276X0.0472*%
%ADD59R,0.0394X0.0315*%
%ADD60R,0.0394X0.1102*%
%ADD61R,0.0512X0.0748*%
%ADD62R,0.1378X0.0394*%
%ADD63R,0.1339X0.0591*%
G04:AMPARAMS|DCode=64|XSize=70.9mil|YSize=45.3mil|CornerRadius=5.7mil|HoleSize=0mil|Usage=FLASHONLY|Rotation=270.000|XOffset=0mil|YOffset=0mil|HoleType=Round|Shape=RoundedRectangle|*
%AMROUNDEDRECTD64*
21,1,0.0709,0.0340,0,0,270.0*
21,1,0.0595,0.0453,0,0,270.0*
1,1,0.0113,-0.0170,-0.0298*
1,1,0.0113,-0.0170,0.0298*
1,1,0.0113,0.0170,0.0298*
1,1,0.0113,0.0170,-0.0298*
%
%ADD64ROUNDEDRECTD64*%
%ADD65R,0.0118X0.0335*%
%ADD66R,0.0115X0.0335*%
%ADD67R,0.0110X0.0335*%
%ADD68R,0.0925X0.0622*%
G04:AMPARAMS|DCode=69|XSize=51.2mil|YSize=31.5mil|CornerRadius=3.9mil|HoleSize=0mil|Usage=FLASHONLY|Rotation=270.000|XOffset=0mil|YOffset=0mil|HoleType=Round|Shape=RoundedRectangle|*
%AMROUNDEDRECTD69*
21,1,0.0512,0.0236,0,0,270.0*
21,1,0.0433,0.0315,0,0,270.0*
1,1,0.0079,-0.0118,-0.0217*
1,1,0.0079,-0.0118,0.0217*
1,1,0.0079,0.0118,0.0217*
1,1,0.0079,0.0118,-0.0217*
%
%ADD69ROUNDEDRECTD69*%
%ADD70R,0.0787X0.0709*%
%ADD71R,0.0098X0.0610*%
%ADD72C,0.0160*%
G36*
X39349Y36266D02*
X39349Y36235D01*
Y35358D01*
X40021D01*
Y36235D01*
X40021Y36266D01*
X40063Y36285D01*
X41947D01*
X41954Y36276D01*
X41938Y36211D01*
X41839Y36158D01*
X41707Y36049D01*
X41598Y35917D01*
X41518Y35767D01*
X41468Y35603D01*
X41451Y35433D01*
X41468Y35263D01*
X41518Y35100D01*
X41598Y34949D01*
X41707Y34817D01*
X41839Y34708D01*
X41989Y34628D01*
X42153Y34578D01*
X42323Y34561D01*
X42493Y34578D01*
X42656Y34628D01*
X42807Y34708D01*
X42939Y34817D01*
X43048Y34949D01*
X43101Y35049D01*
X43166Y35064D01*
X43175Y35058D01*
Y23998D01*
X43166Y23991D01*
X43101Y24007D01*
X43048Y24106D01*
X42939Y24238D01*
X42807Y24347D01*
X42656Y24427D01*
X42493Y24477D01*
X42323Y24494D01*
X42153Y24477D01*
X41989Y24427D01*
X41839Y24347D01*
X41707Y24238D01*
X41598Y24106D01*
X41518Y23956D01*
X41468Y23792D01*
X41451Y23622D01*
X41468Y23452D01*
X41518Y23289D01*
X41598Y23138D01*
X41707Y23006D01*
X41839Y22897D01*
X41938Y22844D01*
X41954Y22779D01*
X41947Y22770D01*
X36356D01*
X36341Y22820D01*
X36343Y22822D01*
X37125Y23603D01*
X37228D01*
X37264Y23610D01*
X37302Y23579D01*
Y23378D01*
X38093D01*
Y23675D01*
X38463D01*
Y23621D01*
X38430Y23595D01*
X38370Y23517D01*
X38332Y23426D01*
X38319Y23328D01*
X38332Y23230D01*
X38370Y23139D01*
X38430Y23060D01*
X38508Y23000D01*
X38600Y22962D01*
X38698Y22949D01*
X38796Y22962D01*
X38887Y23000D01*
X38965Y23060D01*
X39025Y23139D01*
X39063Y23230D01*
X39076Y23328D01*
X39063Y23426D01*
X39025Y23517D01*
X38965Y23595D01*
X38932Y23621D01*
Y24035D01*
X38965Y24060D01*
X39025Y24139D01*
X39063Y24230D01*
X39076Y24328D01*
X39063Y24426D01*
X39025Y24517D01*
X38965Y24595D01*
X38932Y24621D01*
Y24883D01*
X39154D01*
Y25752D01*
X38364D01*
Y24883D01*
X38463D01*
Y24621D01*
X38430Y24595D01*
X38370Y24517D01*
X38332Y24426D01*
X38319Y24328D01*
X38332Y24230D01*
X38370Y24139D01*
X38430Y24060D01*
X38442Y24051D01*
X38425Y24001D01*
X37995D01*
X37993Y24007D01*
X37983Y24051D01*
X38043Y24128D01*
X38083Y24225D01*
X38090Y24278D01*
X37305D01*
X37312Y24225D01*
X37352Y24128D01*
X37381Y24091D01*
X37369Y24025D01*
X37365Y24022D01*
X37317Y24054D01*
X37228Y24072D01*
X37028D01*
X37028Y24072D01*
X36938Y24054D01*
X36862Y24004D01*
X36862Y24004D01*
X36408Y23550D01*
X36354Y23567D01*
X36342Y23627D01*
X36292Y23702D01*
X36216Y23753D01*
X36178Y23760D01*
Y23538D01*
X36128D01*
Y23488D01*
X35905D01*
X35913Y23449D01*
X35963Y23373D01*
X36039Y23323D01*
X36099Y23311D01*
X36115Y23257D01*
X36080Y23222D01*
X33805D01*
X33790Y23272D01*
X33792Y23273D01*
X33842Y23349D01*
X33850Y23388D01*
X33405D01*
X33413Y23349D01*
X33463Y23273D01*
X33465Y23272D01*
X33450Y23222D01*
X32851D01*
X32825Y23272D01*
X32842Y23299D01*
X32850Y23338D01*
X32405D01*
X32413Y23299D01*
X32431Y23272D01*
X32404Y23222D01*
X32255D01*
X32112Y23365D01*
Y24888D01*
X32112Y24888D01*
X32094Y24978D01*
X32043Y25054D01*
X31831Y25266D01*
X31832Y25275D01*
X31853Y25315D01*
X32670D01*
X32733Y25273D01*
X32818Y25256D01*
X32903Y25273D01*
X32975Y25321D01*
X33023Y25393D01*
X33040Y25478D01*
X33023Y25563D01*
X32975Y25635D01*
X32956Y25647D01*
X32971Y25697D01*
X33279D01*
Y25944D01*
X32490D01*
Y25994D01*
X32440D01*
Y26291D01*
X32066D01*
X32034Y26330D01*
X32036Y26338D01*
X32018Y26427D01*
X31999Y26455D01*
X32026Y26505D01*
X33259D01*
Y26604D01*
X33289D01*
X33360Y26618D01*
X33419Y26658D01*
X33615Y26854D01*
X33797D01*
X33864Y26788D01*
X33839Y26741D01*
X33798Y26750D01*
X33720Y26734D01*
X33655Y26691D01*
X33611Y26625D01*
X33596Y26548D01*
X33611Y26470D01*
X33655Y26405D01*
X33665Y26398D01*
Y25253D01*
X33356Y24944D01*
X33328Y24950D01*
X33243Y24933D01*
X33171Y24885D01*
X33122Y24813D01*
X33105Y24728D01*
X33122Y24643D01*
X33171Y24571D01*
X33243Y24523D01*
X33328Y24506D01*
X33413Y24523D01*
X33485Y24571D01*
X33533Y24643D01*
X33550Y24728D01*
X33544Y24757D01*
X33891Y25104D01*
X33920Y25147D01*
X33930Y25198D01*
Y25953D01*
X33980Y25968D01*
X33998Y25941D01*
X34057Y25902D01*
X34123Y25889D01*
X34241Y25771D01*
X34284Y25742D01*
X34295Y25740D01*
Y25617D01*
X34295Y25617D01*
X34295D01*
X34308Y25567D01*
X34282Y25528D01*
X34264Y25438D01*
Y25116D01*
X34229Y25081D01*
X34187Y25019D01*
X34022D01*
X33990Y25013D01*
X33963Y24995D01*
X33945Y24968D01*
X33939Y24936D01*
Y23640D01*
X33945Y23608D01*
X33963Y23581D01*
X33990Y23563D01*
X34022Y23557D01*
X34553D01*
X34585Y23563D01*
X34612Y23581D01*
X34630Y23608D01*
X34636Y23640D01*
Y23912D01*
X34630Y23944D01*
X34612Y23971D01*
X34585Y23989D01*
X34553Y23995D01*
X34378D01*
Y24551D01*
X34394Y24565D01*
X34470Y24580D01*
X34553D01*
X34585Y24587D01*
X34612Y24605D01*
X34630Y24631D01*
X34636Y24663D01*
Y24825D01*
X34664Y24853D01*
X34715Y24929D01*
X34733Y25019D01*
Y25361D01*
X34744Y25377D01*
X34751Y25413D01*
X34754Y25416D01*
X34764Y25467D01*
Y25597D01*
X34778D01*
Y25865D01*
X34878D01*
Y25597D01*
X34892D01*
Y25467D01*
X34893Y25464D01*
Y25088D01*
X34911Y24998D01*
X34962Y24922D01*
X35019Y24865D01*
Y24663D01*
X35026Y24631D01*
X35043Y24605D01*
X35070Y24587D01*
X35102Y24580D01*
X35262D01*
Y24288D01*
X35277Y24212D01*
Y23995D01*
X35102D01*
X35070Y23989D01*
X35043Y23971D01*
X35026Y23944D01*
X35019Y23912D01*
Y23640D01*
X35026Y23608D01*
X35043Y23581D01*
X35070Y23563D01*
X35102Y23557D01*
X35633D01*
X35665Y23563D01*
X35692Y23581D01*
X35710Y23608D01*
X35716Y23640D01*
Y24212D01*
X35731Y24288D01*
Y24718D01*
X35716Y24794D01*
Y24936D01*
X35710Y24968D01*
X35692Y24995D01*
X35665Y25013D01*
X35633Y25019D01*
X35528D01*
X35362Y25185D01*
Y25467D01*
X35344Y25557D01*
X35333Y25573D01*
X35357Y25617D01*
X35361D01*
Y25703D01*
X35404Y25722D01*
X35459Y25733D01*
X35505Y25764D01*
X35600Y25859D01*
X35635Y25851D01*
X35651Y25841D01*
X35662Y25786D01*
X35697Y25735D01*
X35749Y25700D01*
X35810Y25688D01*
X36058D01*
Y26017D01*
Y26347D01*
X35810D01*
X35749Y26335D01*
X35700Y26302D01*
X35683Y26306D01*
X35650Y26320D01*
Y26931D01*
X35700Y26947D01*
X35711Y26930D01*
X35757Y26900D01*
X35810Y26889D01*
X36405D01*
X36459Y26900D01*
X36504Y26930D01*
X36534Y26975D01*
X36545Y27029D01*
Y27368D01*
X36543Y27375D01*
X36912Y27743D01*
X36951Y27802D01*
X36965Y27873D01*
Y28687D01*
X36980Y28690D01*
X37023Y28718D01*
X37051Y28761D01*
X37061Y28811D01*
Y28854D01*
X38812D01*
X38848Y28818D01*
X38829Y28790D01*
X38819Y28740D01*
Y28444D01*
X38823Y28425D01*
X38823Y28425D01*
Y28108D01*
X38811Y28089D01*
X38799Y28031D01*
Y27933D01*
X39178D01*
Y27883D01*
X39228D01*
Y27584D01*
X39404D01*
X39462Y27595D01*
X39512Y27628D01*
X39518Y27639D01*
X39541Y27644D01*
X39582Y27643D01*
X39643Y27603D01*
X39728Y27586D01*
X39813Y27603D01*
X39885Y27651D01*
X39933Y27723D01*
X39950Y27808D01*
X39941Y27849D01*
X40614Y28521D01*
X40641Y28561D01*
X40650Y28608D01*
Y28717D01*
X40696Y28736D01*
X41545Y27887D01*
Y27786D01*
X41518Y27768D01*
X41472Y27699D01*
X41456Y27618D01*
X41472Y27537D01*
X41518Y27468D01*
X41586Y27422D01*
X41668Y27406D01*
X41730Y27418D01*
X41777Y27394D01*
X41786Y27387D01*
X41786Y27385D01*
X41783Y27373D01*
X41741Y27309D01*
X41725Y27228D01*
X41741Y27147D01*
X41787Y27078D01*
X41856Y27032D01*
X41937Y27016D01*
X42018Y27032D01*
X42087Y27078D01*
X42133Y27147D01*
X42149Y27228D01*
X42133Y27309D01*
X42087Y27378D01*
X42059Y27397D01*
Y27978D01*
X42050Y28025D01*
X42024Y28065D01*
X41010Y29078D01*
Y29166D01*
X41060Y29192D01*
X41089Y29173D01*
X41128Y29165D01*
Y29388D01*
X41178D01*
Y29438D01*
X41400D01*
X41392Y29477D01*
X41342Y29552D01*
X41273Y29598D01*
X41273Y29624D01*
X41281Y29648D01*
X41855D01*
X41909Y29659D01*
X41954Y29689D01*
X41984Y29734D01*
X41988Y29753D01*
X42257D01*
X42290Y29710D01*
X42368Y29650D01*
X42460Y29612D01*
X42558Y29599D01*
X42656Y29612D01*
X42747Y29650D01*
X42825Y29710D01*
X42885Y29789D01*
X42923Y29880D01*
X42936Y29978D01*
X42923Y30076D01*
X42885Y30167D01*
X42825Y30245D01*
X42747Y30306D01*
X42656Y30343D01*
X42558Y30356D01*
X42460Y30343D01*
X42368Y30306D01*
X42290Y30245D01*
X42272Y30222D01*
X41956D01*
X41954Y30226D01*
X41909Y30256D01*
X41855Y30266D01*
X41378D01*
X41347Y30290D01*
X41280Y30318D01*
X41208Y30327D01*
X41135Y30318D01*
X41068Y30290D01*
X41060Y30283D01*
X41010Y30308D01*
Y31854D01*
X41001Y31901D01*
X40974Y31941D01*
X40890Y32025D01*
Y32198D01*
X40881Y32245D01*
X40854Y32284D01*
X38589Y34549D01*
X38550Y34576D01*
X38503Y34585D01*
X38249D01*
X38235Y34605D01*
X38170Y34649D01*
X38092Y34665D01*
X38015Y34649D01*
X37950Y34605D01*
X37906Y34540D01*
X37890Y34463D01*
X37906Y34385D01*
X37950Y34320D01*
X38015Y34276D01*
X38092Y34261D01*
X38170Y34276D01*
X38173Y34278D01*
X38209Y34242D01*
X38191Y34215D01*
X38176Y34138D01*
X38191Y34060D01*
X38235Y33995D01*
X38300Y33951D01*
X38378Y33936D01*
X38402Y33941D01*
X40605Y31737D01*
Y30999D01*
X40559Y30979D01*
X40264Y31274D01*
X40224Y31301D01*
X40178Y31310D01*
X36888D01*
X36580Y31618D01*
Y32298D01*
X36615Y32321D01*
X36663Y32393D01*
X36680Y32478D01*
X36663Y32563D01*
X36615Y32635D01*
X36543Y32683D01*
X36458Y32700D01*
X36373Y32683D01*
X36345Y32725D01*
X36355Y32731D01*
X36403Y32803D01*
X36420Y32888D01*
X36403Y32973D01*
X36355Y33045D01*
X36283Y33093D01*
X36198Y33110D01*
X36113Y33093D01*
X36041Y33045D01*
X35992Y32973D01*
X35975Y32888D01*
X35992Y32803D01*
X36041Y32731D01*
X36077Y32706D01*
Y32631D01*
X36027Y32616D01*
X35995Y32665D01*
X35923Y32713D01*
X35838Y32730D01*
X35753Y32713D01*
X35681Y32665D01*
X35632Y32593D01*
X35615Y32508D01*
X35632Y32423D01*
X35681Y32351D01*
X35715Y32328D01*
Y31952D01*
X35669Y31933D01*
X35456Y32146D01*
X35490Y32197D01*
X35507Y32282D01*
X35490Y32367D01*
X35442Y32439D01*
X35370Y32487D01*
X35285Y32504D01*
X35224Y32492D01*
X35167Y32521D01*
X35163Y32543D01*
X35115Y32615D01*
X35043Y32663D01*
X34958Y32680D01*
X34905Y32669D01*
X34862Y32712D01*
X34870Y32748D01*
X34853Y32833D01*
X34805Y32905D01*
X34733Y32953D01*
X34648Y32970D01*
X34605Y32961D01*
X34563Y33004D01*
X34570Y33038D01*
X34553Y33123D01*
X34505Y33195D01*
X34433Y33243D01*
X34348Y33260D01*
X34263Y33243D01*
X34254Y33237D01*
X34210Y33261D01*
Y33758D01*
X34215Y33764D01*
X34647D01*
Y34239D01*
X34093D01*
Y33990D01*
X34047Y33971D01*
X33894Y34124D01*
X33854Y34151D01*
X33808Y34160D01*
X31577D01*
Y34336D01*
X31567Y34389D01*
X31536Y34434D01*
X31491Y34464D01*
X31438Y34475D01*
X31098D01*
X31045Y34464D01*
X31000Y34434D01*
X30970Y34389D01*
X30959Y34336D01*
Y33740D01*
X30970Y33687D01*
X31000Y33642D01*
X31034Y33619D01*
Y33561D01*
X30980Y33553D01*
X30888Y33516D01*
X30810Y33455D01*
X30750Y33377D01*
X30712Y33286D01*
X30699Y33188D01*
X30712Y33090D01*
X30723Y33064D01*
X30519Y32860D01*
X30473Y32879D01*
Y33138D01*
X30078D01*
Y33238D01*
X30473D01*
Y33583D01*
X30394D01*
X30380Y33608D01*
X30374Y33633D01*
X30404Y33679D01*
X30416Y33740D01*
Y33988D01*
X30087D01*
Y34038D01*
X30037D01*
Y34535D01*
X29992Y34602D01*
X29917Y34653D01*
X29878Y34660D01*
Y34438D01*
X29778D01*
Y34660D01*
X29739Y34653D01*
X29710Y34633D01*
X29660Y34660D01*
Y35058D01*
X29669Y35064D01*
X29734Y35049D01*
X29787Y34949D01*
X29896Y34817D01*
X30028Y34708D01*
X30178Y34628D01*
X30342Y34578D01*
X30512Y34561D01*
X30682Y34578D01*
X30845Y34628D01*
X30996Y34708D01*
X31128Y34817D01*
X31237Y34949D01*
X31317Y35100D01*
X31367Y35263D01*
X31383Y35433D01*
X31367Y35603D01*
X31317Y35767D01*
X31237Y35917D01*
X31128Y36049D01*
X30996Y36158D01*
X30896Y36211D01*
X30881Y36276D01*
X30887Y36285D01*
X34086D01*
X34129Y36266D01*
X34129Y36235D01*
Y35004D01*
X34682D01*
Y36235D01*
X34682Y36266D01*
X34725Y36285D01*
X39307D01*
X39349Y36266D01*
D02*
G37*
G36*
X33846Y31010D02*
X33885Y30983D01*
Y29418D01*
X33895Y29371D01*
X33921Y29331D01*
X34231Y29021D01*
X34271Y28995D01*
X34318Y28985D01*
X34737D01*
X35020Y28702D01*
X35016Y28645D01*
X35001Y28635D01*
X34984Y28610D01*
X33588D01*
X33537Y28600D01*
X33494Y28572D01*
X33403Y28480D01*
X33100D01*
Y29226D01*
X33071D01*
Y29618D01*
X32578D01*
Y29718D01*
X33071D01*
Y30109D01*
X33100D01*
Y30815D01*
X33271D01*
X33318Y30825D01*
X33358Y30851D01*
X33511Y31004D01*
X33794D01*
X33835Y31012D01*
X33846Y31010D01*
D02*
G37*
G36*
X40205Y29977D02*
Y29920D01*
X40152Y29884D01*
X40136Y29883D01*
X40094Y29892D01*
X40049Y29959D01*
X39970Y30011D01*
X39878Y30030D01*
X39785Y30011D01*
X39725Y29971D01*
X39638D01*
X39567Y29957D01*
X39508Y29918D01*
X38812Y29221D01*
X37751D01*
X37724Y29271D01*
X37742Y29299D01*
X37750Y29338D01*
X37528D01*
Y29438D01*
X37750D01*
X37742Y29477D01*
X37723Y29505D01*
X37750Y29555D01*
X37932D01*
Y29551D01*
X38367D01*
Y30115D01*
X38483D01*
Y29551D01*
X39037D01*
Y30115D01*
X40067D01*
X40205Y29977D01*
D02*
G37*
G36*
X29712Y31090D02*
X29750Y30999D01*
X29810Y30920D01*
X29888Y30860D01*
X29980Y30822D01*
X30078Y30809D01*
X30176Y30822D01*
X30267Y30860D01*
X30345Y30920D01*
X30357Y30936D01*
X30404Y30920D01*
Y30818D01*
X30417Y30755D01*
X30452Y30702D01*
X30627Y30528D01*
X30680Y30492D01*
X30742Y30480D01*
X30766D01*
X30790Y30430D01*
X30750Y30377D01*
X30712Y30286D01*
X30699Y30188D01*
X30712Y30090D01*
X30750Y29999D01*
X30810Y29920D01*
X30888Y29860D01*
X30980Y29822D01*
X31078Y29809D01*
X31176Y29822D01*
X31267Y29860D01*
X31345Y29920D01*
X31405Y29999D01*
X31443Y30090D01*
X31456Y30188D01*
X31443Y30286D01*
X31405Y30377D01*
X31365Y30430D01*
X31389Y30480D01*
X31423D01*
X31486Y30492D01*
X31539Y30528D01*
X31849Y30838D01*
X31965D01*
Y30366D01*
X31662Y30063D01*
X31627Y30010D01*
X31614Y29948D01*
Y29075D01*
X31312Y28773D01*
X31277Y28720D01*
X31264Y28658D01*
Y25903D01*
X31224Y25882D01*
X31216Y25881D01*
X30743Y26354D01*
X30667Y26404D01*
X30578Y26422D01*
X30428D01*
X30338Y26404D01*
X30262Y26354D01*
X30211Y26278D01*
X30193Y26188D01*
X30211Y26098D01*
X30262Y26022D01*
X30338Y25971D01*
X30428Y25953D01*
X30480D01*
X30943Y25490D01*
X30924Y25444D01*
X29660D01*
Y25658D01*
X29710Y25663D01*
X29713Y25649D01*
X29763Y25573D01*
X29839Y25523D01*
X29878Y25515D01*
Y25738D01*
Y25960D01*
X29839Y25953D01*
X29763Y25902D01*
X29713Y25827D01*
X29710Y25813D01*
X29660Y25818D01*
Y27331D01*
X31099D01*
Y28082D01*
X29660D01*
Y29101D01*
X29710Y29104D01*
X29712Y29090D01*
X29750Y28999D01*
X29810Y28920D01*
X29888Y28860D01*
X29980Y28822D01*
X30078Y28809D01*
X30176Y28822D01*
X30267Y28860D01*
X30345Y28920D01*
X30405Y28999D01*
X30443Y29090D01*
X30456Y29188D01*
X30443Y29286D01*
X30405Y29377D01*
X30345Y29455D01*
X30267Y29516D01*
X30176Y29553D01*
X30078Y29566D01*
X29980Y29553D01*
X29888Y29516D01*
X29810Y29455D01*
X29750Y29377D01*
X29712Y29286D01*
X29710Y29272D01*
X29660Y29275D01*
Y30101D01*
X29710Y30104D01*
X29712Y30090D01*
X29750Y29999D01*
X29810Y29920D01*
X29888Y29860D01*
X29980Y29822D01*
X30078Y29809D01*
X30176Y29822D01*
X30267Y29860D01*
X30345Y29920D01*
X30405Y29999D01*
X30443Y30090D01*
X30456Y30188D01*
X30443Y30286D01*
X30405Y30377D01*
X30345Y30455D01*
X30267Y30516D01*
X30176Y30553D01*
X30078Y30566D01*
X29980Y30553D01*
X29888Y30516D01*
X29810Y30455D01*
X29750Y30377D01*
X29712Y30286D01*
X29710Y30272D01*
X29660Y30275D01*
Y31101D01*
X29710Y31104D01*
X29712Y31090D01*
D02*
G37*
G36*
X34528Y28299D02*
X34527Y28295D01*
X34490Y28270D01*
X34463Y28231D01*
X34454Y28184D01*
Y27807D01*
X34257Y27610D01*
X34186D01*
X34180Y27614D01*
X34149Y27660D01*
X34156Y27694D01*
Y27792D01*
X33778D01*
Y27892D01*
X34156D01*
Y27990D01*
X34144Y28048D01*
X34112Y28097D01*
X34062Y28130D01*
X34004Y28142D01*
X33985D01*
X33943Y28204D01*
X33867Y28254D01*
X33828Y28262D01*
Y28038D01*
X33728D01*
Y28272D01*
X33660D01*
X33636Y28322D01*
X33654Y28345D01*
X34511D01*
X34528Y28299D01*
D02*
G37*
G36*
X35429Y31148D02*
Y30184D01*
X35333D01*
Y30180D01*
X34903D01*
Y30184D01*
X34467D01*
Y29551D01*
X34900D01*
Y29547D01*
X35336D01*
Y29551D01*
X35746D01*
Y29527D01*
X35934D01*
Y29863D01*
Y30200D01*
X35746D01*
Y30184D01*
X35674D01*
Y31064D01*
X35720Y31083D01*
X36295Y30508D01*
Y30184D01*
X36222D01*
Y30200D01*
X36034D01*
Y29863D01*
Y29527D01*
X36222D01*
Y29551D01*
X36633D01*
Y29547D01*
X36708D01*
Y29396D01*
X36634D01*
X36615Y29392D01*
X36615Y29392D01*
X36298D01*
X36279Y29405D01*
X36221Y29416D01*
X36123D01*
Y29038D01*
Y28659D01*
X36221D01*
X36279Y28671D01*
X36298Y28683D01*
X36598D01*
Y27949D01*
X36157Y27507D01*
X35810D01*
X35757Y27497D01*
X35711Y27467D01*
X35681Y27421D01*
X35674Y27387D01*
X35357D01*
Y27450D01*
X35180D01*
Y27470D01*
X35075D01*
Y27203D01*
X34975D01*
Y27470D01*
X34870D01*
Y27450D01*
X34509D01*
X34489Y27497D01*
X34622Y27630D01*
X34812D01*
X34859Y27639D01*
X34869Y27645D01*
X34881Y27633D01*
X35289D01*
X35309Y27620D01*
X35363Y27609D01*
X35431D01*
Y27968D01*
Y28326D01*
X35378D01*
X35355Y28360D01*
X35351Y28375D01*
X35363Y28393D01*
X35380Y28478D01*
X35363Y28563D01*
X35315Y28635D01*
X35280Y28658D01*
Y28738D01*
X35271Y28785D01*
X35244Y28824D01*
X34874Y29194D01*
X34834Y29221D01*
X34788Y29230D01*
X34368D01*
X34130Y29468D01*
Y31244D01*
X34647D01*
X34647Y31244D01*
Y31244D01*
X34657Y31231D01*
X34663Y31223D01*
X34681Y31211D01*
X34739Y31173D01*
X34778Y31165D01*
Y31388D01*
X34828D01*
Y31438D01*
X35050D01*
X35046Y31461D01*
X35092Y31485D01*
X35429Y31148D01*
D02*
G37*
G36*
X32642Y28451D02*
X32652Y28400D01*
X32681Y28357D01*
X32784Y28254D01*
X32827Y28225D01*
X32878Y28215D01*
X32959D01*
X32986Y28165D01*
X32961Y28128D01*
X32953Y28088D01*
X33178D01*
Y28038D01*
X33228D01*
Y27803D01*
X33399D01*
Y27694D01*
X33406Y27660D01*
X33375Y27614D01*
X33369Y27610D01*
X32658D01*
X32503Y27765D01*
Y28456D01*
X32642D01*
Y28451D01*
D02*
G37*
G36*
X40121Y29634D02*
X40147Y29595D01*
X40212Y29551D01*
X40289Y29536D01*
X40355Y29549D01*
X40405Y29521D01*
Y28658D01*
X40250Y28503D01*
X40204Y28528D01*
X40210Y28558D01*
X40193Y28639D01*
X40147Y28708D01*
X40079Y28754D01*
X39998Y28770D01*
X39916Y28754D01*
X39898Y28741D01*
X39535D01*
X39526Y28790D01*
X39497Y28833D01*
X39454Y28861D01*
X39404Y28872D01*
X39313D01*
X39172Y29013D01*
Y29063D01*
X39714Y29604D01*
X39725D01*
X39785Y29564D01*
X39878Y29546D01*
X39970Y29564D01*
X40049Y29617D01*
X40061Y29635D01*
X40121Y29634D01*
D02*
G37*
G36*
X33965Y33707D02*
Y33600D01*
X33728D01*
Y33283D01*
X33678D01*
Y33233D01*
X33302D01*
Y32967D01*
X33322D01*
Y32396D01*
X33965D01*
Y32234D01*
X33915Y32219D01*
X33895Y32250D01*
X33848Y32281D01*
X33794Y32292D01*
X33678D01*
Y32038D01*
X33628D01*
Y32032D01*
X33528D01*
Y32292D01*
X33361D01*
X33307Y32281D01*
X33261Y32250D01*
X33230Y32204D01*
X33228Y32195D01*
X33177D01*
X33175Y32204D01*
X33145Y32250D01*
X33098Y32281D01*
X33044Y32292D01*
X32878D01*
Y32032D01*
X32828D01*
Y31981D01*
X32469D01*
Y31913D01*
X32480Y31859D01*
X32493Y31839D01*
Y31431D01*
X32505Y31419D01*
X32499Y31409D01*
X32489Y31362D01*
Y31163D01*
X32411Y31084D01*
X32365Y31103D01*
Y31317D01*
X32354Y31370D01*
X32324Y31416D01*
X32279Y31446D01*
X32225Y31456D01*
X31630D01*
X31577Y31446D01*
X31531Y31416D01*
X31501Y31370D01*
X31491Y31317D01*
Y31296D01*
X31443Y31286D01*
X31405Y31377D01*
X31345Y31455D01*
X31267Y31516D01*
X31176Y31553D01*
X31078Y31566D01*
X30980Y31553D01*
X30888Y31516D01*
X30810Y31455D01*
X30781Y31417D01*
X30731Y31434D01*
Y31941D01*
X30781Y31958D01*
X30810Y31920D01*
X30888Y31860D01*
X30980Y31822D01*
X31078Y31809D01*
X31176Y31822D01*
X31267Y31860D01*
X31345Y31920D01*
X31405Y31999D01*
X31439Y32079D01*
X31476Y32085D01*
X31492Y32083D01*
X31517Y32046D01*
X31569Y32011D01*
X31630Y31999D01*
X31878D01*
Y32328D01*
Y32658D01*
X31630D01*
X31569Y32646D01*
X31517Y32611D01*
X31482Y32559D01*
X31470Y32498D01*
Y32351D01*
X31420Y32341D01*
X31405Y32377D01*
X31345Y32455D01*
X31267Y32516D01*
X31176Y32553D01*
X31078Y32566D01*
X30980Y32553D01*
X30888Y32516D01*
X30810Y32455D01*
X30781Y32417D01*
X30731Y32434D01*
Y32610D01*
X30953Y32833D01*
X30980Y32822D01*
X31078Y32809D01*
X31176Y32822D01*
X31267Y32860D01*
X31345Y32920D01*
X31405Y32999D01*
X31443Y33090D01*
X31456Y33188D01*
X31450Y33236D01*
X31485Y33289D01*
X31503Y33378D01*
Y33619D01*
X31536Y33642D01*
X31567Y33687D01*
X31577Y33740D01*
Y33915D01*
X33757D01*
X33965Y33707D01*
D02*
G37*
G36*
X31643Y24791D02*
Y23268D01*
X31661Y23178D01*
X31712Y23102D01*
X31992Y22822D01*
X31994Y22820D01*
X31979Y22770D01*
X30887D01*
X30881Y22779D01*
X30896Y22844D01*
X30996Y22897D01*
X31128Y23006D01*
X31237Y23138D01*
X31317Y23289D01*
X31367Y23452D01*
X31383Y23622D01*
X31367Y23792D01*
X31317Y23956D01*
X31237Y24106D01*
X31128Y24238D01*
X30996Y24347D01*
X30845Y24427D01*
X30682Y24477D01*
X30512Y24494D01*
X30342Y24477D01*
X30178Y24427D01*
X30145Y24410D01*
X30108Y24438D01*
X29878D01*
Y24538D01*
X30100D01*
X30092Y24577D01*
X30048Y24644D01*
X30063Y24694D01*
X31099D01*
Y25269D01*
X31145Y25289D01*
X31643Y24791D01*
D02*
G37*
%LPC*%
G36*
X35741Y27918D02*
X35531D01*
Y27609D01*
X35599D01*
X35654Y27620D01*
X35700Y27651D01*
X35731Y27697D01*
X35741Y27751D01*
Y27918D01*
D02*
G37*
G36*
X39350Y26238D02*
X39178D01*
Y26065D01*
X39216Y26073D01*
X39292Y26123D01*
X39342Y26199D01*
X39350Y26238D01*
D02*
G37*
G36*
X36405Y26347D02*
X36158D01*
Y26067D01*
X36565D01*
Y26187D01*
X36553Y26248D01*
X36518Y26300D01*
X36466Y26335D01*
X36405Y26347D01*
D02*
G37*
G36*
X39078Y26510D02*
X39039Y26503D01*
X38963Y26452D01*
X38913Y26377D01*
X38905Y26338D01*
X39078D01*
Y26510D01*
D02*
G37*
G36*
X39178D02*
Y26338D01*
X39350D01*
X39342Y26377D01*
X39292Y26452D01*
X39216Y26503D01*
X39178Y26510D01*
D02*
G37*
G36*
X39128Y27833D02*
X38799D01*
Y27736D01*
X38811Y27678D01*
X38844Y27628D01*
X38893Y27595D01*
X38951Y27584D01*
X39128D01*
Y27833D01*
D02*
G37*
G36*
X40528Y27430D02*
X40446Y27414D01*
X40378Y27368D01*
X40332Y27299D01*
X40316Y27218D01*
X40332Y27137D01*
X40378Y27068D01*
X40405Y27049D01*
Y26616D01*
X40368Y26591D01*
X40322Y26522D01*
X40306Y26441D01*
X40322Y26360D01*
X40368Y26291D01*
X40436Y26245D01*
X40518Y26229D01*
X40599Y26245D01*
X40667Y26291D01*
X40713Y26360D01*
X40730Y26441D01*
X40713Y26522D01*
X40667Y26591D01*
X40650Y26603D01*
Y27049D01*
X40677Y27068D01*
X40723Y27137D01*
X40740Y27218D01*
X40723Y27299D01*
X40677Y27368D01*
X40609Y27414D01*
X40528Y27430D01*
D02*
G37*
G36*
X35978Y27888D02*
X35805D01*
X35813Y27849D01*
X35863Y27773D01*
X35939Y27723D01*
X35978Y27715D01*
Y27888D01*
D02*
G37*
G36*
X31470Y29138D02*
X31128D01*
Y28796D01*
X31181Y28803D01*
X31277Y28843D01*
X31359Y28906D01*
X31423Y28988D01*
X31463Y29085D01*
X31470Y29138D01*
D02*
G37*
G36*
X31028D02*
X30685D01*
X30692Y29085D01*
X30732Y28988D01*
X30796Y28906D01*
X30878Y28843D01*
X30974Y28803D01*
X31028Y28796D01*
Y29138D01*
D02*
G37*
G36*
X39978Y29238D02*
X39805D01*
X39813Y29199D01*
X39863Y29123D01*
X39939Y29073D01*
X39978Y29065D01*
Y29238D01*
D02*
G37*
G36*
X36023Y29416D02*
X35926D01*
X35867Y29405D01*
X35818Y29372D01*
X35785Y29322D01*
X35773Y29264D01*
Y29088D01*
X36023D01*
Y29416D01*
D02*
G37*
G36*
X40250Y29238D02*
X40078D01*
Y29065D01*
X40117Y29073D01*
X40192Y29123D01*
X40242Y29199D01*
X40250Y29238D01*
D02*
G37*
G36*
X36023Y28988D02*
X35773D01*
Y28811D01*
X35785Y28753D01*
X35818Y28704D01*
X35867Y28671D01*
X35926Y28659D01*
X36023D01*
Y28988D01*
D02*
G37*
G36*
X33128Y27988D02*
X32953D01*
X32961Y27948D01*
X33012Y27872D01*
X33088Y27821D01*
X33128Y27813D01*
Y27988D01*
D02*
G37*
G36*
X36250Y27888D02*
X36078D01*
Y27715D01*
X36116Y27723D01*
X36192Y27773D01*
X36242Y27849D01*
X36250Y27888D01*
D02*
G37*
G36*
X35978Y28160D02*
X35939Y28153D01*
X35863Y28102D01*
X35813Y28027D01*
X35805Y27988D01*
X35978D01*
Y28160D01*
D02*
G37*
G36*
X35599Y28326D02*
X35531D01*
Y28018D01*
X35741D01*
Y28184D01*
X35731Y28239D01*
X35700Y28285D01*
X35654Y28316D01*
X35599Y28326D01*
D02*
G37*
G36*
X36078Y28160D02*
Y27988D01*
X36250D01*
X36242Y28027D01*
X36192Y28102D01*
X36116Y28153D01*
X36078Y28160D01*
D02*
G37*
G36*
X39698Y24706D02*
X39600Y24693D01*
X39508Y24656D01*
X39430Y24595D01*
X39370Y24517D01*
X39332Y24426D01*
X39319Y24328D01*
X39332Y24230D01*
X39370Y24139D01*
X39430Y24060D01*
X39508Y24000D01*
X39600Y23962D01*
X39698Y23949D01*
X39796Y23962D01*
X39887Y24000D01*
X39965Y24060D01*
X40025Y24139D01*
X40063Y24230D01*
X40076Y24328D01*
X40063Y24426D01*
X40025Y24517D01*
X39965Y24595D01*
X39887Y24656D01*
X39796Y24693D01*
X39698Y24706D01*
D02*
G37*
G36*
X36078Y23760D02*
X36039Y23753D01*
X35963Y23702D01*
X35913Y23627D01*
X35905Y23588D01*
X36078D01*
Y23760D01*
D02*
G37*
G36*
X33678Y23660D02*
Y23488D01*
X33850D01*
X33842Y23527D01*
X33792Y23602D01*
X33716Y23653D01*
X33678Y23660D01*
D02*
G37*
G36*
X37748Y24720D02*
Y24378D01*
X38090D01*
X38083Y24431D01*
X38043Y24527D01*
X37979Y24610D01*
X37897Y24673D01*
X37801Y24713D01*
X37748Y24720D01*
D02*
G37*
G36*
X37648D02*
X37594Y24713D01*
X37498Y24673D01*
X37416Y24610D01*
X37352Y24527D01*
X37312Y24431D01*
X37305Y24378D01*
X37648D01*
Y24720D01*
D02*
G37*
G36*
X40698Y24706D02*
X40600Y24693D01*
X40508Y24656D01*
X40430Y24595D01*
X40370Y24517D01*
X40332Y24426D01*
X40319Y24328D01*
X40332Y24230D01*
X40370Y24139D01*
X40430Y24060D01*
X40508Y24000D01*
X40600Y23962D01*
X40698Y23949D01*
X40796Y23962D01*
X40887Y24000D01*
X40965Y24060D01*
X41025Y24139D01*
X41063Y24230D01*
X41076Y24328D01*
X41063Y24426D01*
X41025Y24517D01*
X40965Y24595D01*
X40887Y24656D01*
X40796Y24693D01*
X40698Y24706D01*
D02*
G37*
G36*
X33578Y23660D02*
X33539Y23653D01*
X33463Y23602D01*
X33413Y23527D01*
X33405Y23488D01*
X33578D01*
Y23660D01*
D02*
G37*
G36*
X39698Y23706D02*
X39600Y23693D01*
X39508Y23656D01*
X39430Y23595D01*
X39370Y23517D01*
X39332Y23426D01*
X39319Y23328D01*
X39332Y23230D01*
X39370Y23139D01*
X39430Y23060D01*
X39508Y23000D01*
X39600Y22962D01*
X39698Y22949D01*
X39796Y22962D01*
X39887Y23000D01*
X39965Y23060D01*
X40025Y23139D01*
X40063Y23230D01*
X40076Y23328D01*
X40063Y23426D01*
X40025Y23517D01*
X39965Y23595D01*
X39887Y23656D01*
X39796Y23693D01*
X39698Y23706D01*
D02*
G37*
G36*
X38093Y23278D02*
X37748D01*
Y22933D01*
X38093D01*
Y23278D01*
D02*
G37*
G36*
X37648D02*
X37302D01*
Y22933D01*
X37648D01*
Y23278D01*
D02*
G37*
G36*
X32678Y23610D02*
Y23438D01*
X32850D01*
X32842Y23477D01*
X32792Y23552D01*
X32717Y23603D01*
X32678Y23610D01*
D02*
G37*
G36*
X32578D02*
X32539Y23603D01*
X32463Y23552D01*
X32413Y23477D01*
X32405Y23438D01*
X32578D01*
Y23610D01*
D02*
G37*
G36*
X40698Y23706D02*
X40600Y23693D01*
X40508Y23656D01*
X40430Y23595D01*
X40370Y23517D01*
X40332Y23426D01*
X40319Y23328D01*
X40332Y23230D01*
X40370Y23139D01*
X40430Y23060D01*
X40508Y23000D01*
X40600Y22962D01*
X40698Y22949D01*
X40796Y22962D01*
X40887Y23000D01*
X40965Y23060D01*
X41025Y23139D01*
X41063Y23230D01*
X41076Y23328D01*
X41063Y23426D01*
X41025Y23517D01*
X40965Y23595D01*
X40887Y23656D01*
X40796Y23693D01*
X40698Y23706D01*
D02*
G37*
G36*
X36565Y25967D02*
X36158D01*
Y25688D01*
X36405D01*
X36466Y25700D01*
X36518Y25735D01*
X36553Y25786D01*
X36565Y25847D01*
Y25967D01*
D02*
G37*
G36*
X40778Y25860D02*
Y25688D01*
X40950D01*
X40942Y25727D01*
X40892Y25802D01*
X40816Y25853D01*
X40778Y25860D01*
D02*
G37*
G36*
X40678D02*
X40639Y25853D01*
X40563Y25802D01*
X40513Y25727D01*
X40505Y25688D01*
X40678D01*
Y25860D01*
D02*
G37*
G36*
X39078Y26238D02*
X38905D01*
X38913Y26199D01*
X38963Y26123D01*
X39039Y26073D01*
X39078Y26065D01*
Y26238D01*
D02*
G37*
G36*
X33279Y26291D02*
X32540D01*
Y26044D01*
X33279D01*
Y26291D01*
D02*
G37*
G36*
X29978Y25960D02*
Y25788D01*
X30150D01*
X30142Y25827D01*
X30092Y25902D01*
X30017Y25953D01*
X29978Y25960D01*
D02*
G37*
G36*
X30150Y25688D02*
X29978D01*
Y25515D01*
X30017Y25523D01*
X30092Y25573D01*
X30142Y25649D01*
X30150Y25688D01*
D02*
G37*
G36*
X37606Y25772D02*
X37241D01*
Y25368D01*
X37606D01*
Y25772D01*
D02*
G37*
G36*
X38071Y25268D02*
X37706D01*
Y24863D01*
X38071D01*
Y25268D01*
D02*
G37*
G36*
X37606D02*
X37241D01*
Y24863D01*
X37606D01*
Y25268D01*
D02*
G37*
G36*
X40950Y25588D02*
X40778D01*
Y25415D01*
X40816Y25423D01*
X40892Y25473D01*
X40942Y25549D01*
X40950Y25588D01*
D02*
G37*
G36*
X40678D02*
X40505D01*
X40513Y25549D01*
X40563Y25473D01*
X40639Y25423D01*
X40678Y25415D01*
Y25588D01*
D02*
G37*
G36*
X38071Y25772D02*
X37706D01*
Y25368D01*
X38071D01*
Y25772D01*
D02*
G37*
G36*
X42933Y29353D02*
X42182D01*
Y29100D01*
X41667D01*
X41664Y29115D01*
X41620Y29181D01*
X41555Y29224D01*
X41478Y29240D01*
X41403Y29225D01*
X41395Y29231D01*
X41369Y29263D01*
X41392Y29299D01*
X41400Y29338D01*
X41228D01*
Y29165D01*
X41266Y29173D01*
X41272Y29177D01*
X41308Y29141D01*
X41291Y29115D01*
X41276Y29038D01*
X41291Y28960D01*
X41335Y28895D01*
X41400Y28851D01*
X41478Y28836D01*
X41555Y28851D01*
X41561Y28855D01*
X42182D01*
Y28603D01*
X42933D01*
Y29353D01*
D02*
G37*
G36*
X40928Y34488D02*
X40755D01*
X40763Y34449D01*
X40813Y34373D01*
X40889Y34323D01*
X40928Y34315D01*
Y34488D01*
D02*
G37*
G36*
X30257Y34495D02*
X30137D01*
Y34088D01*
X30416D01*
Y34336D01*
X30404Y34397D01*
X30370Y34448D01*
X30318Y34483D01*
X30257Y34495D01*
D02*
G37*
G36*
X42558Y34356D02*
X42460Y34343D01*
X42368Y34306D01*
X42290Y34245D01*
X42230Y34167D01*
X42192Y34076D01*
X42179Y33978D01*
X42192Y33880D01*
X42230Y33789D01*
X42290Y33710D01*
X42368Y33650D01*
X42460Y33612D01*
X42558Y33599D01*
X42656Y33612D01*
X42747Y33650D01*
X42825Y33710D01*
X42885Y33789D01*
X42923Y33880D01*
X42936Y33978D01*
X42923Y34076D01*
X42885Y34167D01*
X42825Y34245D01*
X42747Y34306D01*
X42656Y34343D01*
X42558Y34356D01*
D02*
G37*
G36*
X41028Y34760D02*
Y34588D01*
X41200D01*
X41192Y34627D01*
X41142Y34702D01*
X41066Y34753D01*
X41028Y34760D01*
D02*
G37*
G36*
X40928D02*
X40889Y34753D01*
X40813Y34702D01*
X40763Y34627D01*
X40755Y34588D01*
X40928D01*
Y34760D01*
D02*
G37*
G36*
X41200Y34488D02*
X41028D01*
Y34315D01*
X41066Y34323D01*
X41142Y34373D01*
X41192Y34449D01*
X41200Y34488D01*
D02*
G37*
G36*
X38328Y33356D02*
Y33183D01*
X38500D01*
X38492Y33222D01*
X38442Y33297D01*
X38366Y33348D01*
X38328Y33356D01*
D02*
G37*
G36*
X38228D02*
X38189Y33348D01*
X38113Y33297D01*
X38063Y33222D01*
X38055Y33183D01*
X38228D01*
Y33356D01*
D02*
G37*
G36*
X41250Y33188D02*
X41078D01*
Y33015D01*
X41116Y33023D01*
X41192Y33073D01*
X41242Y33149D01*
X41250Y33188D01*
D02*
G37*
G36*
X33628Y33600D02*
X33302D01*
Y33333D01*
X33628D01*
Y33600D01*
D02*
G37*
G36*
X41078Y33460D02*
Y33288D01*
X41250D01*
X41242Y33327D01*
X41192Y33402D01*
X41116Y33453D01*
X41078Y33460D01*
D02*
G37*
G36*
X40978D02*
X40939Y33453D01*
X40863Y33402D01*
X40813Y33327D01*
X40805Y33288D01*
X40978D01*
Y33460D01*
D02*
G37*
G36*
X36128Y36010D02*
X36089Y36003D01*
X36013Y35952D01*
X35963Y35877D01*
X35955Y35838D01*
X36128D01*
Y36010D01*
D02*
G37*
G36*
X32500Y35838D02*
X32328D01*
Y35665D01*
X32366Y35673D01*
X32442Y35723D01*
X32492Y35799D01*
X32500Y35838D01*
D02*
G37*
G36*
X32228D02*
X32055D01*
X32063Y35799D01*
X32113Y35723D01*
X32189Y35673D01*
X32228Y35665D01*
Y35838D01*
D02*
G37*
G36*
X32328Y36110D02*
Y35938D01*
X32500D01*
X32492Y35977D01*
X32442Y36052D01*
X32366Y36103D01*
X32328Y36110D01*
D02*
G37*
G36*
X32228D02*
X32189Y36103D01*
X32113Y36052D01*
X32063Y35977D01*
X32055Y35938D01*
X32228D01*
Y36110D01*
D02*
G37*
G36*
X36228Y36010D02*
Y35838D01*
X36400D01*
X36392Y35877D01*
X36342Y35952D01*
X36267Y36003D01*
X36228Y36010D01*
D02*
G37*
G36*
X31628Y35260D02*
X31589Y35253D01*
X31513Y35202D01*
X31463Y35127D01*
X31455Y35088D01*
X31628D01*
Y35260D01*
D02*
G37*
G36*
X31900Y34988D02*
X31728D01*
Y34815D01*
X31767Y34823D01*
X31842Y34873D01*
X31892Y34949D01*
X31900Y34988D01*
D02*
G37*
G36*
X31628D02*
X31455D01*
X31463Y34949D01*
X31513Y34873D01*
X31589Y34823D01*
X31628Y34815D01*
Y34988D01*
D02*
G37*
G36*
X36400Y35738D02*
X36228D01*
Y35565D01*
X36267Y35573D01*
X36342Y35623D01*
X36392Y35699D01*
X36400Y35738D01*
D02*
G37*
G36*
X36128D02*
X35955D01*
X35963Y35699D01*
X36013Y35623D01*
X36089Y35573D01*
X36128Y35565D01*
Y35738D01*
D02*
G37*
G36*
X31728Y35260D02*
Y35088D01*
X31900D01*
X31892Y35127D01*
X31842Y35202D01*
X31767Y35253D01*
X31728Y35260D01*
D02*
G37*
G36*
X40978Y33188D02*
X40805D01*
X40813Y33149D01*
X40863Y33073D01*
X40939Y33023D01*
X40978Y33015D01*
Y33188D01*
D02*
G37*
G36*
X42508Y30928D02*
X42165D01*
X42172Y30875D01*
X42212Y30778D01*
X42276Y30696D01*
X42358Y30633D01*
X42454Y30593D01*
X42508Y30586D01*
Y30928D01*
D02*
G37*
G36*
X33482Y29960D02*
Y29788D01*
X33655D01*
X33647Y29827D01*
X33597Y29902D01*
X33521Y29953D01*
X33482Y29960D01*
D02*
G37*
G36*
X33382D02*
X33343Y29953D01*
X33268Y29902D01*
X33218Y29827D01*
X33210Y29788D01*
X33382D01*
Y29960D01*
D02*
G37*
G36*
X42015Y31088D02*
X41608D01*
Y30809D01*
X41855D01*
X41916Y30821D01*
X41968Y30856D01*
X42003Y30907D01*
X42015Y30969D01*
Y31088D01*
D02*
G37*
G36*
X41508D02*
X41100D01*
Y30969D01*
X41112Y30907D01*
X41147Y30856D01*
X41199Y30821D01*
X41260Y30809D01*
X41508D01*
Y31088D01*
D02*
G37*
G36*
X42950Y30928D02*
X42608D01*
Y30586D01*
X42661Y30593D01*
X42757Y30633D01*
X42839Y30696D01*
X42903Y30778D01*
X42943Y30875D01*
X42950Y30928D01*
D02*
G37*
G36*
X39978Y29510D02*
X39939Y29503D01*
X39863Y29452D01*
X39813Y29377D01*
X39805Y29338D01*
X39978D01*
Y29510D01*
D02*
G37*
G36*
X31128Y29580D02*
Y29238D01*
X31470D01*
X31463Y29291D01*
X31423Y29387D01*
X31359Y29470D01*
X31277Y29533D01*
X31181Y29573D01*
X31128Y29580D01*
D02*
G37*
G36*
X31028D02*
X30974Y29573D01*
X30878Y29533D01*
X30796Y29470D01*
X30732Y29387D01*
X30692Y29291D01*
X30685Y29238D01*
X31028D01*
Y29580D01*
D02*
G37*
G36*
X33655Y29688D02*
X33482D01*
Y29515D01*
X33521Y29523D01*
X33597Y29573D01*
X33647Y29649D01*
X33655Y29688D01*
D02*
G37*
G36*
X33382D02*
X33210D01*
X33218Y29649D01*
X33268Y29573D01*
X33343Y29523D01*
X33382Y29515D01*
Y29688D01*
D02*
G37*
G36*
X40078Y29510D02*
Y29338D01*
X40250D01*
X40242Y29377D01*
X40192Y29452D01*
X40117Y29503D01*
X40078Y29510D01*
D02*
G37*
G36*
X32225Y32658D02*
X31978D01*
Y32378D01*
X32385D01*
Y32498D01*
X32373Y32559D01*
X32338Y32611D01*
X32286Y32646D01*
X32225Y32658D01*
D02*
G37*
G36*
X42558Y32356D02*
X42460Y32343D01*
X42368Y32306D01*
X42290Y32245D01*
X42230Y32167D01*
X42210Y32120D01*
X41571D01*
X41555Y32145D01*
X41483Y32193D01*
X41398Y32210D01*
X41313Y32193D01*
X41241Y32145D01*
X41192Y32073D01*
X41175Y31988D01*
X41192Y31903D01*
X41241Y31831D01*
X41313Y31783D01*
X41398Y31766D01*
X41483Y31783D01*
X41555Y31831D01*
X41571Y31855D01*
X42202D01*
X42230Y31789D01*
X42290Y31710D01*
X42368Y31650D01*
X42460Y31612D01*
X42558Y31599D01*
X42656Y31612D01*
X42747Y31650D01*
X42825Y31710D01*
X42885Y31789D01*
X42923Y31880D01*
X42936Y31978D01*
X42923Y32076D01*
X42885Y32167D01*
X42825Y32245D01*
X42747Y32306D01*
X42656Y32343D01*
X42558Y32356D01*
D02*
G37*
G36*
X32778Y32292D02*
X32611D01*
X32557Y32281D01*
X32511Y32250D01*
X32480Y32204D01*
X32469Y32150D01*
Y32081D01*
X32778D01*
Y32292D01*
D02*
G37*
G36*
X38500Y33083D02*
X38328D01*
Y32911D01*
X38366Y32918D01*
X38442Y32969D01*
X38492Y33044D01*
X38500Y33083D01*
D02*
G37*
G36*
X38228D02*
X38055D01*
X38063Y33044D01*
X38113Y32969D01*
X38189Y32918D01*
X38228Y32911D01*
Y33083D01*
D02*
G37*
G36*
X42558Y33356D02*
X42460Y33343D01*
X42368Y33306D01*
X42290Y33245D01*
X42230Y33167D01*
X42192Y33076D01*
X42179Y32978D01*
X42192Y32880D01*
X42230Y32789D01*
X42290Y32710D01*
X42368Y32650D01*
X42460Y32612D01*
X42558Y32599D01*
X42656Y32612D01*
X42747Y32650D01*
X42825Y32710D01*
X42885Y32789D01*
X42923Y32880D01*
X42936Y32978D01*
X42923Y33076D01*
X42885Y33167D01*
X42825Y33245D01*
X42747Y33306D01*
X42656Y33343D01*
X42558Y33356D01*
D02*
G37*
G36*
X35050Y31338D02*
X34878D01*
Y31165D01*
X34917Y31173D01*
X34992Y31223D01*
X35042Y31299D01*
X35050Y31338D01*
D02*
G37*
G36*
X42608Y31370D02*
Y31028D01*
X42950D01*
X42943Y31081D01*
X42903Y31177D01*
X42839Y31260D01*
X42757Y31323D01*
X42661Y31363D01*
X42608Y31370D01*
D02*
G37*
G36*
X42508D02*
X42454Y31363D01*
X42358Y31323D01*
X42276Y31260D01*
X42212Y31177D01*
X42172Y31081D01*
X42165Y31028D01*
X42508D01*
Y31370D01*
D02*
G37*
G36*
X32385Y32278D02*
X31978D01*
Y31999D01*
X32225D01*
X32286Y32011D01*
X32338Y32046D01*
X32373Y32097D01*
X32385Y32159D01*
Y32278D01*
D02*
G37*
G36*
X41855Y31468D02*
X41608D01*
Y31188D01*
X42015D01*
Y31308D01*
X42003Y31369D01*
X41968Y31421D01*
X41916Y31456D01*
X41855Y31468D01*
D02*
G37*
G36*
X41508D02*
X41260D01*
X41199Y31456D01*
X41147Y31421D01*
X41112Y31369D01*
X41100Y31308D01*
Y31188D01*
X41508D01*
Y31468D01*
D02*
G37*
%LPD*%
D25*
X33678Y33283D02*
D03*
Y32693D02*
D03*
D27*
X36073Y29038D02*
D03*
X36782D02*
D03*
D33*
X39178Y27883D02*
D03*
Y28592D02*
D03*
X33778Y27842D02*
D03*
Y27133D02*
D03*
D34*
X32828Y32032D02*
D03*
Y31244D02*
D03*
X33578Y32032D02*
D03*
Y31244D02*
D03*
D36*
X35025Y25467D02*
Y25865D01*
X34631Y25467D02*
Y25865D01*
X34105Y24510D02*
X34394Y24800D01*
X32878Y28348D02*
X33458D01*
X33588Y28478D01*
X35158D01*
X32774Y28451D02*
X32878Y28348D01*
X32774Y28451D02*
Y28661D01*
X35112Y26538D02*
Y26644D01*
X35025Y26731D02*
X35112Y26644D01*
X35025Y26731D02*
Y27203D01*
X32118Y27808D02*
Y28338D01*
X41398Y31988D02*
X42628D01*
X34128Y26071D02*
X34334Y25865D01*
X34434D01*
X34828D02*
Y26534D01*
X33328Y24728D02*
X33798Y25198D01*
Y26548D01*
X29528Y36417D02*
X43307D01*
Y22638D02*
Y36417D01*
X29528Y22638D02*
Y36417D01*
Y22638D02*
X43307D01*
D37*
X35128Y25088D02*
X35497Y24718D01*
X35128Y25088D02*
Y25467D01*
X35497Y24288D02*
Y24718D01*
X34499Y25438D02*
X34528Y25467D01*
X34499Y25019D02*
Y25438D01*
X34394Y24915D02*
X34499Y25019D01*
X34394Y24800D02*
Y24915D01*
X33178Y28038D02*
X33778D01*
X31878Y23268D02*
Y24888D01*
X30578Y26188D02*
X31878Y24888D01*
X30428Y26188D02*
X30578D01*
X38698Y23838D02*
Y24328D01*
Y23328D02*
Y23838D01*
X37028D02*
X37228D01*
X36178Y22988D02*
X37028Y23838D01*
X32158Y22988D02*
X36178D01*
X31878Y23268D02*
X32158Y22988D01*
X38698Y24328D02*
Y25257D01*
Y23238D02*
Y23328D01*
Y25257D02*
X38759Y25318D01*
X41562Y29891D02*
X41659Y29988D01*
X42628D01*
X31078Y33188D02*
X31268Y33378D01*
Y34038D01*
D38*
X38878Y30538D02*
X39878D01*
X38468Y30948D02*
X38878Y30538D01*
X36728Y30948D02*
X38468D01*
X32578Y29668D02*
Y30315D01*
Y29488D02*
Y29668D01*
X41478Y29038D02*
X41538Y28978D01*
X42558D01*
X40289Y29738D02*
X40328Y29776D01*
X40289Y29738D02*
X40328D01*
Y29776D02*
Y30028D01*
X40118Y30238D02*
X40328Y30028D01*
X40178Y31188D02*
X40528Y30838D01*
Y28608D02*
Y30838D01*
X39728Y27808D02*
X40528Y28608D01*
X40728Y28878D02*
X41668Y27938D01*
X40728Y28878D02*
Y31788D01*
X40888Y29028D02*
Y31854D01*
Y29028D02*
X41937Y27978D01*
X40768Y31974D02*
X40888Y31854D01*
X38378Y34138D02*
X40728Y31788D01*
X40768Y31974D02*
Y32198D01*
X38503Y34463D02*
X40768Y32198D01*
X38228Y30238D02*
X40118D01*
X37928Y30538D02*
X38228Y30238D01*
X36838Y31188D02*
X40178D01*
X36458Y31568D02*
X36838Y31188D01*
X34088Y31988D02*
Y33758D01*
X33808Y34038D02*
X34088Y33758D01*
X31268Y34038D02*
X33808D01*
X35158Y28478D02*
Y28738D01*
X34788Y29108D02*
X35158Y28738D01*
X34318Y29108D02*
X34788D01*
X34008Y29418D02*
X34318Y29108D01*
X34008Y29418D02*
Y31908D01*
X34088Y31988D01*
X36198Y32888D02*
X36200Y32886D01*
Y31836D02*
Y32886D01*
Y31836D02*
X36208Y31828D01*
X35838Y31838D02*
X36728Y30948D01*
X35838Y31838D02*
Y32508D01*
X36458Y31568D02*
Y32478D01*
X34958Y32245D02*
Y32458D01*
Y32245D02*
X36615Y30588D01*
X35285Y32144D02*
X36641Y30788D01*
X35285Y32144D02*
Y32282D01*
X34648Y32328D02*
X36417Y30559D01*
X34348Y32402D02*
X35551Y31199D01*
X34648Y32328D02*
Y32748D01*
X34348Y32402D02*
Y33038D01*
X41668Y27618D02*
Y27938D01*
X41937Y27228D02*
Y27978D01*
X38092Y34463D02*
X38503D01*
X40518Y26441D02*
X40528Y26451D01*
Y27218D01*
X32381Y27715D02*
Y28661D01*
X32744Y31244D02*
X32828D01*
X32381Y30881D02*
X32744Y31244D01*
X32381Y30315D02*
Y30881D01*
X33271Y30938D02*
X33578Y31244D01*
X32868Y30938D02*
X33271D01*
X32774Y30845D02*
X32868Y30938D01*
X32774Y30315D02*
Y30845D01*
X34308Y27488D02*
X34634Y27814D01*
X32608Y27488D02*
X34308D01*
X32381Y27715D02*
X32608Y27488D01*
X34634Y27814D02*
Y28038D01*
X35551Y29867D02*
Y31199D01*
X36417Y29867D02*
Y30559D01*
X36615Y30588D02*
X37028D01*
X37283Y30332D01*
Y29867D02*
Y30332D01*
X36641Y30788D02*
X37178D01*
X37717Y30249D01*
Y29871D02*
Y30249D01*
D39*
X35308Y27203D02*
X35508D01*
X39638Y29788D02*
X39878D01*
X38888Y29038D02*
X39638Y29788D01*
X39368Y28558D02*
X39998D01*
X38888Y29038D02*
X39368Y28558D01*
X36782Y29038D02*
X38888D01*
X31728Y27594D02*
Y28518D01*
Y27594D02*
X32534Y26788D01*
X36782Y27873D02*
Y29038D01*
X36108Y27198D02*
X36782Y27873D01*
X33847Y27203D02*
X34434D01*
X33778Y27133D02*
X33847Y27203D01*
X33289Y26788D02*
X33724Y27223D01*
X32534Y26788D02*
X33289D01*
X33778Y27133D02*
X34128Y26783D01*
Y26071D02*
Y26783D01*
X34434Y27203D02*
X34631D01*
X36023D02*
X36028Y27198D01*
X35508Y27203D02*
X36023D01*
D40*
X32053Y28843D02*
X32163D01*
X31728Y28518D02*
X32053Y28843D01*
X35404Y25865D02*
X35508Y25968D01*
X35222Y25865D02*
X35404D01*
X35508Y25968D02*
Y27203D01*
X34631D02*
X34828D01*
X36850Y29106D02*
Y29863D01*
X36782Y29038D02*
X36850Y29106D01*
D42*
X32543Y27133D02*
X34513D01*
X32543D02*
Y29103D01*
X34513D01*
Y27133D02*
Y29103D01*
X32877D02*
X32997D01*
X32877D02*
X32997D01*
X33074D02*
X33194D01*
X33074D02*
X33194D01*
X33271D02*
X33391D01*
X33271D02*
X33391D01*
X33468D02*
X33588D01*
X33468D02*
X33588D01*
X33664D02*
X33784D01*
X33664D02*
X33784D01*
X33861D02*
X33981D01*
X33861D02*
X33981D01*
X34058D02*
X34178D01*
X34058D02*
X34178D01*
X34513Y28648D02*
Y28768D01*
Y28648D02*
Y28768D01*
Y28451D02*
Y28572D01*
Y28451D02*
Y28572D01*
Y28255D02*
Y28375D01*
Y28255D02*
Y28375D01*
Y28058D02*
Y28178D01*
Y28058D02*
Y28178D01*
Y27861D02*
Y27981D01*
Y27861D02*
Y27981D01*
Y27664D02*
Y27784D01*
Y27664D02*
Y27784D01*
Y27467D02*
Y27587D01*
Y27467D02*
Y27587D01*
X34058Y27133D02*
X34178D01*
X34058D02*
X34178D01*
X33861D02*
X33981D01*
X33861D02*
X33981D01*
X33664D02*
X33784D01*
X33664D02*
X33784D01*
X33468D02*
X33588D01*
X33468D02*
X33588D01*
X33271D02*
X33391D01*
X33271D02*
X33391D01*
X33074D02*
X33194D01*
X33074D02*
X33194D01*
X32877D02*
X32997D01*
X32877D02*
X32997D01*
X32543Y27467D02*
Y27587D01*
Y27467D02*
Y27587D01*
Y27664D02*
Y27784D01*
Y27664D02*
Y27784D01*
Y27861D02*
Y27981D01*
Y27861D02*
Y27981D01*
Y28058D02*
Y28178D01*
Y28058D02*
Y28178D01*
Y28255D02*
Y28375D01*
Y28255D02*
Y28375D01*
Y28451D02*
Y28572D01*
Y28451D02*
Y28572D01*
Y28648D02*
Y28768D01*
Y28648D02*
Y28768D01*
Y27633D02*
X33043Y27133D01*
D43*
X30512Y35433D02*
D03*
X42323D02*
D03*
Y23622D02*
D03*
X30512D02*
D03*
D44*
X42558Y33978D02*
D03*
Y32978D02*
D03*
Y31978D02*
D03*
Y30978D02*
D03*
Y29978D02*
D03*
X31078Y33188D02*
D03*
X30078Y32188D02*
D03*
X31078D02*
D03*
X30078Y31188D02*
D03*
X31078D02*
D03*
X30078Y30188D02*
D03*
X31078D02*
D03*
X30078Y29188D02*
D03*
X31078D02*
D03*
X37698Y24328D02*
D03*
X38698Y23328D02*
D03*
Y24328D02*
D03*
X39698Y23328D02*
D03*
Y24328D02*
D03*
X40698Y23328D02*
D03*
Y24328D02*
D03*
D45*
X42558Y28978D02*
D03*
X30078Y33188D02*
D03*
D46*
X37698Y23328D02*
D03*
D47*
X33628Y32038D02*
D03*
X34828Y31388D02*
D03*
X31803Y26338D02*
D03*
X33628Y23438D02*
D03*
X29928Y25738D02*
D03*
X29878Y24488D02*
D03*
X29828Y34438D02*
D03*
X31678Y35038D02*
D03*
X36178Y35788D02*
D03*
X32278Y35888D02*
D03*
X40978Y34538D02*
D03*
X41028Y33238D02*
D03*
X38278Y33133D02*
D03*
X33432Y29738D02*
D03*
X33678Y33288D02*
D03*
X37928Y30538D02*
D03*
X36128Y23538D02*
D03*
X32628Y23388D02*
D03*
X36078Y29088D02*
D03*
X36028Y27938D02*
D03*
X37528Y29388D02*
D03*
X41178D02*
D03*
X36208Y31828D02*
D03*
X41668Y27618D02*
D03*
X41937Y27228D02*
D03*
X40518Y26441D02*
D03*
X40528Y27218D02*
D03*
X33178Y28038D02*
D03*
X33778D02*
D03*
X39128Y26288D02*
D03*
X40728Y25638D02*
D03*
X40028Y29288D02*
D03*
X39998Y28558D02*
D03*
D48*
X39878Y29788D02*
D03*
X36108Y27198D02*
D03*
D49*
X41478Y29038D02*
D03*
X40289Y29738D02*
D03*
X39878Y30538D02*
D03*
X38378Y34138D02*
D03*
X38092Y34463D02*
D03*
X32118Y28338D02*
D03*
Y27808D02*
D03*
X33798Y26548D02*
D03*
D50*
X30428Y26188D02*
D03*
X36198Y32888D02*
D03*
X36458Y32478D02*
D03*
X35838Y32508D02*
D03*
X34958Y32458D02*
D03*
X35285Y32282D02*
D03*
X34648Y32748D02*
D03*
X34348Y33038D02*
D03*
X39728Y27808D02*
D03*
X41398Y31988D02*
D03*
X32818Y25478D02*
D03*
X33328Y24728D02*
D03*
X33678Y32688D02*
D03*
X35158Y28478D02*
D03*
D51*
X35112Y26538D02*
D03*
X41208Y30048D02*
D03*
D52*
X32814Y29668D02*
D03*
X32341D02*
D03*
D53*
X34394Y23776D02*
D03*
Y24800D02*
D03*
X35261Y23776D02*
D03*
Y24800D02*
D03*
D54*
X34158Y24288D02*
D03*
X35497D02*
D03*
D55*
X41558Y29957D02*
D03*
Y31138D02*
D03*
X31928Y31147D02*
D03*
Y32328D02*
D03*
X36108Y27198D02*
D03*
Y26017D02*
D03*
D56*
X38759Y25318D02*
D03*
X37656D02*
D03*
D57*
X38760Y29867D02*
D03*
X34370Y31560D02*
D03*
D58*
X37283Y29867D02*
D03*
X38150D02*
D03*
X37717Y29871D02*
D03*
X36417Y29867D02*
D03*
X36850Y29863D02*
D03*
X35551Y29867D02*
D03*
X35984Y29863D02*
D03*
X35118D02*
D03*
X34685Y29867D02*
D03*
D59*
X34370Y34001D02*
D03*
D60*
X34406Y35635D02*
D03*
D61*
X39685Y35812D02*
D03*
D62*
X32490Y26781D02*
D03*
Y25994D02*
D03*
D63*
X30350Y27707D02*
D03*
Y25069D02*
D03*
D64*
X30087Y34038D02*
D03*
X31268D02*
D03*
D65*
X35222Y25865D02*
D03*
X34434D02*
D03*
Y27203D02*
D03*
X34631D02*
D03*
D66*
X35025Y25865D02*
D03*
X34828D02*
D03*
X34631D02*
D03*
D67*
X34828Y27203D02*
D03*
X35025D02*
D03*
X35222D02*
D03*
D68*
X34828Y26534D02*
D03*
D69*
X35481Y27968D02*
D03*
X34694D02*
D03*
D70*
X32578Y29668D02*
D03*
D71*
X32971Y28841D02*
D03*
X32774D02*
D03*
X32578D02*
D03*
X32381D02*
D03*
X32184D02*
D03*
X32971Y30495D02*
D03*
X32774D02*
D03*
X32578D02*
D03*
X32381D02*
D03*
X32184D02*
D03*
D72*
X31778Y29948D02*
X32128Y30298D01*
X31778Y29008D02*
Y29948D01*
X31428Y28658D02*
X31778Y29008D01*
X31428Y25888D02*
Y28658D01*
Y25888D02*
X31838Y25478D01*
X37228Y23838D02*
X38698D01*
X31838Y25478D02*
X32818D01*
X31928Y31147D02*
X32128Y30947D01*
Y30298D02*
Y30947D01*
X31423Y30643D02*
X31928Y31147D01*
X30742Y30643D02*
X31423D01*
X30568Y30818D02*
X30742Y30643D01*
X30568Y30818D02*
Y32678D01*
X31078Y33188D01*
M02*
