M48
;Layer_Color=9474304
;FILE_FORMAT=2:4
INCH,TZ
;TYPE=PLATED
T1F00S00C0.0130
T2F00S00C0.0197
T3F00S00C0.0236
T4F00S00C0.0354
T5F00S00C0.1248
%
T01
X32341Y29668
X32814
T02
X32628Y23388
X33628Y23438
X33328Y24728
X32818Y25478
X31803Y26338
X32118Y27808
Y28338
X33178Y28038
X33778
X33798Y26548
X35158Y28478
X36028Y27938
X36078Y29088
X37528Y29388
X37928Y30538
X39878
X40289Y29738
X40028Y29288
X39998Y28558
X39728Y27808
X40528Y27218
X40518Y26441
X40728Y25638
X39128Y26288
X41937Y27228
X41668Y27618
X41478Y29038
X41178Y29388
X33432Y29738
X36128Y23538
X29878Y24488
X29928Y25738
X30428Y26188
X29828Y34438
X31678Y35038
X32278Y35888
X36178Y35788
X36198Y32888
X36458Y32478
X35838Y32508
X35285Y32282
X34958Y32458
X34648Y32748
X34348Y33038
X33678Y33288
Y32688
X33628Y32038
X34828Y31388
X36208Y31828
X38278Y33133
X38378Y34138
X38092Y34463
X40978Y34538
X41028Y33238
X41398Y31988
T03
X35112Y26538
X36108Y27198
X39878Y29788
X41208Y30048
T04
X37698Y23328
Y24328
X38698
Y23328
X39698
Y24328
X40698
Y23328
X42558Y28978
Y29978
Y30978
X31078Y31188
X30078
Y30188
X31078
Y29188
X30078
Y32188
Y33188
X31078
Y32188
X42558Y31978
Y32978
Y33978
T05
X42323Y23622
X30512
Y35433
X42323
M30
