G04 Layer_Color=65535*
%FSLAX24Y24*%
%MOIN*%
G70*
G01*
G75*
%ADD36C,0.0100*%
%ADD38C,0.0080*%
%ADD42C,0.0000*%
%ADD73C,0.0098*%
%ADD74C,0.0236*%
%ADD75C,0.0079*%
%ADD76C,0.0060*%
%ADD77C,0.0050*%
%ADD78C,0.0040*%
D36*
X41240Y28252D02*
X42224D01*
X41240Y27858D02*
Y28252D01*
Y25024D02*
X42224D01*
X41240D02*
Y25417D01*
X38301Y27461D02*
X39954D01*
X38301Y25414D02*
X39954D01*
X38301D02*
Y25650D01*
X39954Y25414D02*
Y25650D01*
X38301Y27225D02*
Y27461D01*
X39954Y27225D02*
Y27461D01*
X29528Y36417D02*
X43307D01*
Y22638D02*
Y36417D01*
X29528Y22638D02*
Y36417D01*
Y22638D02*
X43307D01*
D38*
X40118Y35688D02*
Y35988D01*
X39948Y35688D02*
X40078Y35808D01*
X39948Y35988D02*
X40078Y35868D01*
X39938Y35688D02*
Y35988D01*
X40118Y34988D02*
Y35288D01*
X39948Y34988D02*
X40078Y35108D01*
X39948Y35288D02*
X40078Y35168D01*
X39938Y34988D02*
Y35288D01*
D42*
X32543Y27133D02*
X34513D01*
X32543D02*
Y29103D01*
X34513D01*
Y27133D02*
Y29103D01*
X32877D02*
X32997D01*
X32877D02*
X32997D01*
X33074D02*
X33194D01*
X33074D02*
X33194D01*
X33271D02*
X33391D01*
X33271D02*
X33391D01*
X33468D02*
X33588D01*
X33468D02*
X33588D01*
X33664D02*
X33784D01*
X33664D02*
X33784D01*
X33861D02*
X33981D01*
X33861D02*
X33981D01*
X34058D02*
X34178D01*
X34058D02*
X34178D01*
X34513Y28648D02*
Y28768D01*
Y28648D02*
Y28768D01*
Y28451D02*
Y28572D01*
Y28451D02*
Y28572D01*
Y28255D02*
Y28375D01*
Y28255D02*
Y28375D01*
Y28058D02*
Y28178D01*
Y28058D02*
Y28178D01*
Y27861D02*
Y27981D01*
Y27861D02*
Y27981D01*
Y27664D02*
Y27784D01*
Y27664D02*
Y27784D01*
Y27467D02*
Y27587D01*
Y27467D02*
Y27587D01*
X34058Y27133D02*
X34178D01*
X34058D02*
X34178D01*
X33861D02*
X33981D01*
X33861D02*
X33981D01*
X33664D02*
X33784D01*
X33664D02*
X33784D01*
X33468D02*
X33588D01*
X33468D02*
X33588D01*
X33271D02*
X33391D01*
X33271D02*
X33391D01*
X33074D02*
X33194D01*
X33074D02*
X33194D01*
X32877D02*
X32997D01*
X32877D02*
X32997D01*
X32543Y27467D02*
Y27587D01*
Y27467D02*
Y27587D01*
Y27664D02*
Y27784D01*
Y27664D02*
Y27784D01*
Y27861D02*
Y27981D01*
Y27861D02*
Y27981D01*
Y28058D02*
Y28178D01*
Y28058D02*
Y28178D01*
Y28255D02*
Y28375D01*
Y28255D02*
Y28375D01*
Y28451D02*
Y28572D01*
Y28451D02*
Y28572D01*
Y28648D02*
Y28768D01*
Y28648D02*
Y28768D01*
Y27633D02*
X33043Y27133D01*
D73*
X33047Y26181D02*
G03*
X33047Y26181I-49J0D01*
G01*
X37715Y29380D02*
G03*
X37715Y29380I-49J0D01*
G01*
X32691Y26878D02*
G03*
X32691Y26878I-49J0D01*
G01*
X32952Y34787D02*
G03*
X32952Y34787I-49J0D01*
G01*
D74*
X33887Y34246D02*
G03*
X33887Y34246I-118J0D01*
G01*
D75*
X32427Y25728D02*
X32742D01*
X34513D02*
X34828D01*
X32092Y22145D02*
Y22657D01*
Y23956D02*
Y24822D01*
X35163Y23956D02*
Y24822D01*
Y22145D02*
Y22657D01*
X32092Y22145D02*
X35163D01*
X43058Y28478D02*
Y34478D01*
X42058Y28478D02*
Y34478D01*
Y28478D02*
X43058D01*
X42058Y34478D02*
X43058D01*
X29578Y28688D02*
X31578D01*
X29578Y33688D02*
X31578D01*
Y28688D02*
Y33688D01*
X29578Y28688D02*
Y33688D01*
X38020Y29488D02*
Y29695D01*
X38227D01*
X39428D02*
X39635D01*
Y29488D02*
Y29695D01*
Y28081D02*
Y28287D01*
X39428Y28081D02*
X39635D01*
X38020D02*
X38227D01*
X38020D02*
Y28287D01*
X38438Y35622D02*
Y36134D01*
X38448Y34892D02*
Y35404D01*
X33376Y31136D02*
X36880D01*
X33376Y34640D02*
X36880D01*
Y31136D02*
Y34640D01*
X33376Y31136D02*
Y34640D01*
X35078Y29482D02*
Y29994D01*
X41198Y22828D02*
Y24828D01*
X37198Y22828D02*
Y24828D01*
X41198D01*
X37198Y22828D02*
X41198D01*
D76*
X34309Y27133D02*
X34513D01*
X32543D02*
X32746D01*
X32543Y28899D02*
Y29103D01*
X34309D02*
X34513D01*
Y27133D02*
Y27336D01*
X32543Y27133D02*
Y27336D01*
X34513Y28899D02*
Y29103D01*
X32543D02*
X32746D01*
D77*
X34699Y26281D02*
Y26794D01*
X34816Y26281D02*
Y26794D01*
X32099Y26081D02*
Y26594D01*
X32216Y26081D02*
Y26594D01*
X36661Y26779D02*
X37174D01*
X36661Y26897D02*
X37174D01*
X37391Y26779D02*
X37904D01*
X37391Y26897D02*
X37904D01*
X36771Y28497D02*
X37284D01*
X36771Y28379D02*
X37284D01*
X34928Y28208D02*
Y28508D01*
X35428Y28208D02*
Y28508D01*
X38708Y32304D02*
Y34272D01*
X39967Y32304D02*
Y34272D01*
X40281Y28987D02*
X40794D01*
X40281Y28869D02*
X40794D01*
X40678Y30458D02*
Y30758D01*
X40178Y30458D02*
Y30758D01*
X41448Y30458D02*
Y30758D01*
X40948Y30458D02*
Y30758D01*
D78*
X41011Y32754D02*
X40978Y32788D01*
X40911D01*
X40878Y32754D01*
Y32621D01*
X40911Y32588D01*
X40978D01*
X41011Y32621D01*
X41077Y32588D02*
X41144D01*
X41111D01*
Y32788D01*
X41077Y32754D01*
X40961Y33934D02*
X40928Y33968D01*
X40861D01*
X40828Y33934D01*
Y33801D01*
X40861Y33768D01*
X40928D01*
X40961Y33801D01*
X41161Y33768D02*
X41027D01*
X41161Y33901D01*
Y33934D01*
X41127Y33968D01*
X41061D01*
X41027Y33934D01*
X37361Y29904D02*
X37328Y29938D01*
X37261D01*
X37228Y29904D01*
Y29771D01*
X37261Y29738D01*
X37328D01*
X37361Y29771D01*
X37427Y29904D02*
X37461Y29938D01*
X37527D01*
X37561Y29904D01*
Y29871D01*
X37527Y29838D01*
X37494D01*
X37527D01*
X37561Y29804D01*
Y29771D01*
X37527Y29738D01*
X37461D01*
X37427Y29771D01*
X35761Y36004D02*
X35728Y36038D01*
X35661D01*
X35628Y36004D01*
Y35871D01*
X35661Y35838D01*
X35728D01*
X35761Y35871D01*
X35961Y36038D02*
X35827D01*
Y35938D01*
X35894Y35971D01*
X35927D01*
X35961Y35938D01*
Y35871D01*
X35927Y35838D01*
X35861D01*
X35827Y35871D01*
X32761Y36004D02*
X32728Y36038D01*
X32661D01*
X32628Y36004D01*
Y35871D01*
X32661Y35838D01*
X32728D01*
X32761Y35871D01*
X32961Y36038D02*
X32894Y36004D01*
X32827Y35938D01*
Y35871D01*
X32861Y35838D01*
X32927D01*
X32961Y35871D01*
Y35904D01*
X32927Y35938D01*
X32827D01*
X32851Y30124D02*
X32818Y30158D01*
X32751D01*
X32718Y30124D01*
Y29991D01*
X32751Y29958D01*
X32818D01*
X32851Y29991D01*
X32917Y30158D02*
X33051D01*
Y30124D01*
X32917Y29991D01*
Y29958D01*
X38261Y33704D02*
X38228Y33738D01*
X38161D01*
X38128Y33704D01*
Y33571D01*
X38161Y33538D01*
X38228D01*
X38261Y33571D01*
X38327Y33704D02*
X38361Y33738D01*
X38427D01*
X38461Y33704D01*
Y33671D01*
X38427Y33638D01*
X38461Y33604D01*
Y33571D01*
X38427Y33538D01*
X38361D01*
X38327Y33571D01*
Y33604D01*
X38361Y33638D01*
X38327Y33671D01*
Y33704D01*
X38361Y33638D02*
X38427D01*
X31028Y26444D02*
X30995Y26477D01*
X30928D01*
X30895Y26444D01*
Y26311D01*
X30928Y26278D01*
X30995D01*
X31028Y26311D01*
X31095Y26278D02*
X31162D01*
X31128D01*
Y26477D01*
X31095Y26444D01*
X31395Y26278D02*
X31262D01*
X31395Y26411D01*
Y26444D01*
X31362Y26477D01*
X31295D01*
X31262Y26444D01*
X35591Y26604D02*
X35558Y26638D01*
X35491D01*
X35458Y26604D01*
Y26471D01*
X35491Y26438D01*
X35558D01*
X35591Y26471D01*
X35657Y26438D02*
X35724D01*
X35691D01*
Y26638D01*
X35657Y26604D01*
X35824D02*
X35857Y26638D01*
X35924D01*
X35957Y26604D01*
Y26571D01*
X35924Y26538D01*
X35891D01*
X35924D01*
X35957Y26504D01*
Y26471D01*
X35924Y26438D01*
X35857D01*
X35824Y26471D01*
X36751Y27704D02*
X36718Y27738D01*
X36651D01*
X36618Y27704D01*
Y27571D01*
X36651Y27538D01*
X36718D01*
X36751Y27571D01*
X36817Y27538D02*
X36884D01*
X36851D01*
Y27738D01*
X36817Y27704D01*
X37084Y27538D02*
Y27738D01*
X36984Y27638D01*
X37117D01*
X37581Y27704D02*
X37548Y27738D01*
X37481D01*
X37448Y27704D01*
Y27571D01*
X37481Y27538D01*
X37548D01*
X37581Y27571D01*
X37647Y27538D02*
X37714D01*
X37681D01*
Y27738D01*
X37647Y27704D01*
X37947Y27738D02*
X37814D01*
Y27638D01*
X37881Y27671D01*
X37914D01*
X37947Y27638D01*
Y27571D01*
X37914Y27538D01*
X37847D01*
X37814Y27571D01*
X36251Y28494D02*
X36218Y28528D01*
X36151D01*
X36118Y28494D01*
Y28361D01*
X36151Y28328D01*
X36218D01*
X36251Y28361D01*
X36317Y28328D02*
X36384D01*
X36351D01*
Y28528D01*
X36317Y28494D01*
X36617Y28528D02*
X36551Y28494D01*
X36484Y28428D01*
Y28361D01*
X36517Y28328D01*
X36584D01*
X36617Y28361D01*
Y28394D01*
X36584Y28428D01*
X36484D01*
X41111Y28704D02*
X41078Y28738D01*
X41011D01*
X40978Y28704D01*
Y28571D01*
X41011Y28538D01*
X41078D01*
X41111Y28571D01*
X41177Y28538D02*
X41244D01*
X41211D01*
Y28738D01*
X41177Y28704D01*
X41344Y28738D02*
X41477D01*
Y28704D01*
X41344Y28571D01*
Y28538D01*
X40828Y35238D02*
Y35038D01*
X40928D01*
X40961Y35071D01*
Y35204D01*
X40928Y35238D01*
X40828D01*
X41027Y35038D02*
X41094D01*
X41061D01*
Y35238D01*
X41027Y35204D01*
X40828Y35938D02*
Y35738D01*
X40928D01*
X40961Y35771D01*
Y35904D01*
X40928Y35938D01*
X40828D01*
X41161Y35738D02*
X41027D01*
X41161Y35871D01*
Y35904D01*
X41127Y35938D01*
X41061D01*
X41027Y35904D01*
X41678Y33738D02*
Y33804D01*
Y33771D01*
X41878D01*
Y33738D01*
Y33804D01*
X41711Y34038D02*
X41678Y34004D01*
Y33938D01*
X41711Y33904D01*
X41844D01*
X41878Y33938D01*
Y34004D01*
X41844Y34038D01*
X41711Y34238D02*
X41678Y34204D01*
Y34138D01*
X41711Y34104D01*
X41744D01*
X41778Y34138D01*
Y34204D01*
X41811Y34238D01*
X41844D01*
X41878Y34204D01*
Y34138D01*
X41844Y34104D01*
X41878Y34304D02*
X41678D01*
Y34404D01*
X41711Y34438D01*
X41778D01*
X41811Y34404D01*
Y34304D01*
X40761Y28238D02*
X40694D01*
X40728D01*
Y28071D01*
X40694Y28038D01*
X40661D01*
X40628Y28071D01*
X40927Y28038D02*
Y28238D01*
X40827Y28138D01*
X40961D01*
X30511Y34138D02*
X30444D01*
X30478D01*
Y33971D01*
X30444Y33938D01*
X30411D01*
X30378Y33971D01*
X30711Y34138D02*
X30577D01*
Y34038D01*
X30644Y34071D01*
X30677D01*
X30711Y34038D01*
Y33971D01*
X30677Y33938D01*
X30611D01*
X30577Y33971D01*
X34968Y29098D02*
Y29298D01*
X35068D01*
X35101Y29264D01*
Y29198D01*
X35068Y29164D01*
X34968D01*
X35034D02*
X35101Y29098D01*
X35167D02*
X35234D01*
X35201D01*
Y29298D01*
X35167Y29264D01*
X37238Y35778D02*
Y35978D01*
X37338D01*
X37371Y35944D01*
Y35878D01*
X37338Y35844D01*
X37238D01*
X37304D02*
X37371Y35778D01*
X37571D02*
X37437D01*
X37571Y35911D01*
Y35944D01*
X37537Y35978D01*
X37471D01*
X37437Y35944D01*
X37248Y35048D02*
Y35248D01*
X37348D01*
X37381Y35214D01*
Y35148D01*
X37348Y35114D01*
X37248D01*
X37314D02*
X37381Y35048D01*
X37447Y35214D02*
X37481Y35248D01*
X37547D01*
X37581Y35214D01*
Y35181D01*
X37547Y35148D01*
X37514D01*
X37547D01*
X37581Y35114D01*
Y35081D01*
X37547Y35048D01*
X37481D01*
X37447Y35081D01*
X32728Y35388D02*
Y35221D01*
X32761Y35188D01*
X32828D01*
X32861Y35221D01*
Y35388D01*
X32927Y35188D02*
X32994D01*
X32961D01*
Y35388D01*
X32927Y35354D01*
X32078Y29168D02*
Y29001D01*
X32111Y28968D01*
X32178D01*
X32211Y29001D01*
Y29168D01*
X32377Y28968D02*
Y29168D01*
X32277Y29068D01*
X32411D01*
X37778Y25738D02*
Y25571D01*
X37811Y25538D01*
X37878D01*
X37911Y25571D01*
Y25738D01*
X38111D02*
X37977D01*
Y25638D01*
X38044Y25671D01*
X38077D01*
X38111Y25638D01*
Y25571D01*
X38077Y25538D01*
X38011D01*
X37977Y25571D01*
X38628Y30388D02*
Y30221D01*
X38661Y30188D01*
X38728D01*
X38761Y30221D01*
Y30388D01*
X38961D02*
X38894Y30354D01*
X38827Y30288D01*
Y30221D01*
X38861Y30188D01*
X38927D01*
X38961Y30221D01*
Y30254D01*
X38927Y30288D01*
X38827D01*
X39188Y31888D02*
Y31854D01*
X39254Y31788D01*
X39321Y31854D01*
Y31888D01*
X39254Y31788D02*
Y31688D01*
X39387D02*
X39454D01*
X39421D01*
Y31888D01*
X39387Y31854D01*
X41398Y24828D02*
Y24628D01*
Y24728D01*
X41531D01*
Y24828D01*
Y24628D01*
X41597D02*
X41664D01*
X41631D01*
Y24828D01*
X41597Y24794D01*
X31661Y24288D02*
X31594D01*
X31628D01*
Y24121D01*
X31594Y24088D01*
X31561D01*
X31528Y24121D01*
X31727Y24088D02*
X31794D01*
X31761D01*
Y24288D01*
X31727Y24254D01*
X35578Y28248D02*
Y28448D01*
X35678D01*
X35711Y28414D01*
Y28348D01*
X35678Y28314D01*
X35578D01*
X35644D02*
X35711Y28248D01*
X35777Y28281D02*
X35811Y28248D01*
X35877D01*
X35911Y28281D01*
Y28414D01*
X35877Y28448D01*
X35811D01*
X35777Y28414D01*
Y28381D01*
X35811Y28348D01*
X35911D01*
X40248Y31358D02*
Y31558D01*
X40348D01*
X40381Y31524D01*
Y31458D01*
X40348Y31424D01*
X40248D01*
X40314D02*
X40381Y31358D01*
X40447D02*
X40514D01*
X40481D01*
Y31558D01*
X40447Y31524D01*
X40614D02*
X40647Y31558D01*
X40714D01*
X40747Y31524D01*
Y31391D01*
X40714Y31358D01*
X40647D01*
X40614Y31391D01*
Y31524D01*
X40998Y31348D02*
Y31548D01*
X41098D01*
X41131Y31514D01*
Y31448D01*
X41098Y31414D01*
X40998D01*
X41064D02*
X41131Y31348D01*
X41197D02*
X41264D01*
X41231D01*
Y31548D01*
X41197Y31514D01*
X41364Y31348D02*
X41431D01*
X41397D01*
Y31548D01*
X41364Y31514D01*
X40311Y25704D02*
X40278Y25738D01*
X40211D01*
X40178Y25704D01*
Y25571D01*
X40211Y25538D01*
X40278D01*
X40311Y25571D01*
Y25638D01*
X40244D01*
X40377Y25538D02*
Y25738D01*
X40511Y25538D01*
Y25738D01*
X40577D02*
Y25538D01*
X40677D01*
X40711Y25571D01*
Y25704D01*
X40677Y25738D01*
X40577D01*
X40128Y26104D02*
X40161Y26138D01*
X40228D01*
X40261Y26104D01*
Y26071D01*
X40228Y26038D01*
X40194D01*
X40228D01*
X40261Y26004D01*
Y25971D01*
X40228Y25938D01*
X40161D01*
X40128Y25971D01*
X40327Y25938D02*
Y25971D01*
X40361D01*
Y25938D01*
X40327D01*
X40494Y26104D02*
X40527Y26138D01*
X40594D01*
X40627Y26104D01*
Y26071D01*
X40594Y26038D01*
X40561D01*
X40594D01*
X40627Y26004D01*
Y25971D01*
X40594Y25938D01*
X40527D01*
X40494Y25971D01*
X40694Y26138D02*
Y26004D01*
X40761Y25938D01*
X40827Y26004D01*
Y26138D01*
X40411Y26904D02*
X40378Y26938D01*
X40311D01*
X40278Y26904D01*
Y26871D01*
X40311Y26838D01*
X40378D01*
X40411Y26804D01*
Y26771D01*
X40378Y26738D01*
X40311D01*
X40278Y26771D01*
X40611Y26904D02*
X40577Y26938D01*
X40511D01*
X40477Y26904D01*
Y26771D01*
X40511Y26738D01*
X40577D01*
X40611Y26771D01*
X40677Y26938D02*
Y26738D01*
X40811D01*
X40411Y27704D02*
X40378Y27738D01*
X40311D01*
X40278Y27704D01*
Y27571D01*
X40311Y27538D01*
X40378D01*
X40411Y27571D01*
Y27638D01*
X40344D01*
X40477Y27738D02*
X40611D01*
X40544D01*
Y27538D01*
X40677Y27738D02*
X40811Y27538D01*
Y27738D02*
X40677Y27538D01*
X36261Y23304D02*
X36228Y23338D01*
X36161D01*
X36128Y23304D01*
Y23171D01*
X36161Y23138D01*
X36228D01*
X36261Y23171D01*
Y23238D01*
X36194D01*
X36327Y23338D02*
Y23204D01*
X36394Y23138D01*
X36461Y23204D01*
Y23338D01*
X36527Y23138D02*
Y23338D01*
X36627D01*
X36661Y23304D01*
Y23238D01*
X36627Y23204D01*
X36527D01*
X36594D02*
X36661Y23138D01*
X36727Y23338D02*
X36861D01*
X36794D01*
Y23138D01*
X36311Y24354D02*
X36278Y24388D01*
X36211D01*
X36178Y24354D01*
Y24221D01*
X36211Y24188D01*
X36278D01*
X36311Y24221D01*
Y24288D01*
X36244D01*
X36377Y24388D02*
Y24254D01*
X36444Y24188D01*
X36511Y24254D01*
Y24388D01*
X36577D02*
Y24188D01*
X36677D01*
X36711Y24221D01*
Y24354D01*
X36677Y24388D01*
X36577D01*
X36911Y24354D02*
X36877Y24388D01*
X36811D01*
X36777Y24354D01*
Y24221D01*
X36811Y24188D01*
X36877D01*
X36911Y24221D01*
X41678Y28738D02*
X41811D01*
X41878Y28804D01*
X41811Y28871D01*
X41678D01*
X41878Y28938D02*
X41678D01*
Y29038D01*
X41711Y29071D01*
X41778D01*
X41811Y29038D01*
Y28938D01*
X41878Y29138D02*
X41678D01*
Y29238D01*
X41711Y29271D01*
X41778D01*
X41811Y29238D01*
Y29138D01*
X41711Y29688D02*
X41678Y29721D01*
Y29788D01*
X41711Y29821D01*
X41744D01*
X41778Y29788D01*
Y29754D01*
Y29788D01*
X41811Y29821D01*
X41844D01*
X41878Y29788D01*
Y29721D01*
X41844Y29688D01*
X41878Y29888D02*
X41844D01*
Y29921D01*
X41878D01*
Y29888D01*
X41711Y30054D02*
X41678Y30088D01*
Y30154D01*
X41711Y30188D01*
X41744D01*
X41778Y30154D01*
Y30121D01*
Y30154D01*
X41811Y30188D01*
X41844D01*
X41878Y30154D01*
Y30088D01*
X41844Y30054D01*
X41678Y30254D02*
X41811D01*
X41878Y30321D01*
X41811Y30388D01*
X41678D01*
X41711Y30871D02*
X41678Y30838D01*
Y30771D01*
X41711Y30738D01*
X41844D01*
X41878Y30771D01*
Y30838D01*
X41844Y30871D01*
X41778D01*
Y30804D01*
X41878Y30938D02*
X41678D01*
X41878Y31071D01*
X41678D01*
Y31138D02*
X41878D01*
Y31238D01*
X41844Y31271D01*
X41711D01*
X41678Y31238D01*
Y31138D01*
X41878Y31788D02*
X41678D01*
Y31888D01*
X41711Y31921D01*
X41778D01*
X41811Y31888D01*
Y31788D01*
X41711Y32121D02*
X41678Y32088D01*
Y32021D01*
X41711Y31988D01*
X41844D01*
X41878Y32021D01*
Y32088D01*
X41844Y32121D01*
X41778D01*
Y32054D01*
X41678Y32188D02*
X41878D01*
Y32288D01*
X41844Y32321D01*
X41711D01*
X41678Y32288D01*
Y32188D01*
X41878Y32738D02*
X41678D01*
Y32838D01*
X41711Y32871D01*
X41778D01*
X41811Y32838D01*
Y32738D01*
X41711Y33071D02*
X41678Y33038D01*
Y32971D01*
X41711Y32938D01*
X41844D01*
X41878Y32971D01*
Y33038D01*
X41844Y33071D01*
X41778D01*
Y33004D01*
X41711Y33271D02*
X41678Y33238D01*
Y33171D01*
X41711Y33138D01*
X41844D01*
X41878Y33171D01*
Y33238D01*
X41844Y33271D01*
X30978Y33854D02*
Y33988D01*
X31111Y33854D01*
X31144D01*
X31177Y33888D01*
Y33954D01*
X31144Y33988D01*
X29878D02*
Y33921D01*
Y33954D01*
X30077D01*
X30044Y33988D01*
X29911Y28588D02*
X29878Y28554D01*
Y28488D01*
X29911Y28454D01*
X30044D01*
X30077Y28488D01*
Y28554D01*
X30044Y28588D01*
X30011D01*
X29978Y28554D01*
Y28454D01*
X30878Y28588D02*
Y28521D01*
Y28554D01*
X31077D01*
X31044Y28588D01*
Y28421D02*
X31077Y28388D01*
Y28321D01*
X31044Y28288D01*
X30911D01*
X30878Y28321D01*
Y28388D01*
X30911Y28421D01*
X31044D01*
M02*
