G04 Layer_Color=16711935*
%FSLAX24Y24*%
%MOIN*%
G70*
G01*
G75*
%ADD36C,0.0100*%
%ADD42C,0.0000*%
%ADD93R,0.0631X0.0513*%
G04:AMPARAMS|DCode=95|XSize=63.1mil|YSize=47.4mil|CornerRadius=8.9mil|HoleSize=0mil|Usage=FLASHONLY|Rotation=270.000|XOffset=0mil|YOffset=0mil|HoleType=Round|Shape=RoundedRectangle|*
%AMROUNDEDRECTD95*
21,1,0.0631,0.0295,0,0,270.0*
21,1,0.0453,0.0474,0,0,270.0*
1,1,0.0178,-0.0148,-0.0226*
1,1,0.0178,-0.0148,0.0226*
1,1,0.0178,0.0148,0.0226*
1,1,0.0178,0.0148,-0.0226*
%
%ADD95ROUNDEDRECTD95*%
G04:AMPARAMS|DCode=101|XSize=63.1mil|YSize=47.4mil|CornerRadius=8.9mil|HoleSize=0mil|Usage=FLASHONLY|Rotation=0.000|XOffset=0mil|YOffset=0mil|HoleType=Round|Shape=RoundedRectangle|*
%AMROUNDEDRECTD101*
21,1,0.0631,0.0295,0,0,0.0*
21,1,0.0453,0.0474,0,0,0.0*
1,1,0.0178,0.0226,-0.0148*
1,1,0.0178,-0.0226,-0.0148*
1,1,0.0178,-0.0226,0.0148*
1,1,0.0178,0.0226,0.0148*
%
%ADD101ROUNDEDRECTD101*%
G04:AMPARAMS|DCode=102|XSize=59.2mil|YSize=39.5mil|CornerRadius=7.9mil|HoleSize=0mil|Usage=FLASHONLY|Rotation=0.000|XOffset=0mil|YOffset=0mil|HoleType=Round|Shape=RoundedRectangle|*
%AMROUNDEDRECTD102*
21,1,0.0592,0.0236,0,0,0.0*
21,1,0.0433,0.0395,0,0,0.0*
1,1,0.0159,0.0217,-0.0118*
1,1,0.0159,-0.0217,-0.0118*
1,1,0.0159,-0.0217,0.0118*
1,1,0.0159,0.0217,0.0118*
%
%ADD102ROUNDEDRECTD102*%
%ADD104C,0.1655*%
%ADD105C,0.0671*%
%ADD106R,0.0671X0.0671*%
%ADD107R,0.0671X0.0671*%
%ADD108C,0.0336*%
%ADD109C,0.0395*%
%ADD110C,0.0316*%
%ADD111C,0.0356*%
%ADD112C,0.0474*%
G04:AMPARAMS|DCode=113|XSize=40mil|YSize=35.6mil|CornerRadius=4.1mil|HoleSize=0mil|Usage=FLASHONLY|Rotation=0.000|XOffset=0mil|YOffset=0mil|HoleType=Round|Shape=RoundedRectangle|*
%AMROUNDEDRECTD113*
21,1,0.0400,0.0273,0,0,0.0*
21,1,0.0317,0.0356,0,0,0.0*
1,1,0.0083,0.0158,-0.0136*
1,1,0.0083,-0.0158,-0.0136*
1,1,0.0083,-0.0158,0.0136*
1,1,0.0083,0.0158,0.0136*
%
%ADD113ROUNDEDRECTD113*%
G04:AMPARAMS|DCode=114|XSize=137.9mil|YSize=35.6mil|CornerRadius=4.1mil|HoleSize=0mil|Usage=FLASHONLY|Rotation=270.000|XOffset=0mil|YOffset=0mil|HoleType=Round|Shape=RoundedRectangle|*
%AMROUNDEDRECTD114*
21,1,0.1379,0.0273,0,0,270.0*
21,1,0.1296,0.0356,0,0,270.0*
1,1,0.0083,-0.0136,-0.0648*
1,1,0.0083,-0.0136,0.0648*
1,1,0.0083,0.0136,0.0648*
1,1,0.0083,0.0136,-0.0648*
%
%ADD114ROUNDEDRECTD114*%
G04:AMPARAMS|DCode=115|XSize=78.9mil|YSize=53.3mil|CornerRadius=9.7mil|HoleSize=0mil|Usage=FLASHONLY|Rotation=0.000|XOffset=0mil|YOffset=0mil|HoleType=Round|Shape=RoundedRectangle|*
%AMROUNDEDRECTD115*
21,1,0.0789,0.0340,0,0,0.0*
21,1,0.0595,0.0533,0,0,0.0*
1,1,0.0193,0.0298,-0.0170*
1,1,0.0193,-0.0298,-0.0170*
1,1,0.0193,-0.0298,0.0170*
1,1,0.0193,0.0298,0.0170*
%
%ADD115ROUNDEDRECTD115*%
%ADD116R,0.0710X0.0789*%
%ADD117R,0.0474X0.0552*%
%ADD118R,0.0356X0.0552*%
%ADD119R,0.0474X0.0395*%
%ADD120R,0.0474X0.1182*%
%ADD121R,0.0592X0.0828*%
%ADD122R,0.1458X0.0474*%
%ADD123R,0.1419X0.0671*%
G04:AMPARAMS|DCode=124|XSize=78.9mil|YSize=53.3mil|CornerRadius=9.7mil|HoleSize=0mil|Usage=FLASHONLY|Rotation=270.000|XOffset=0mil|YOffset=0mil|HoleType=Round|Shape=RoundedRectangle|*
%AMROUNDEDRECTD124*
21,1,0.0789,0.0340,0,0,270.0*
21,1,0.0595,0.0533,0,0,270.0*
1,1,0.0193,-0.0170,-0.0298*
1,1,0.0193,-0.0170,0.0298*
1,1,0.0193,0.0170,0.0298*
1,1,0.0193,0.0170,-0.0298*
%
%ADD124ROUNDEDRECTD124*%
%ADD125R,0.0157X0.0374*%
%ADD126R,0.0154X0.0374*%
%ADD127R,0.0149X0.0374*%
%ADD128R,0.0965X0.0661*%
G04:AMPARAMS|DCode=129|XSize=59.2mil|YSize=39.5mil|CornerRadius=7.9mil|HoleSize=0mil|Usage=FLASHONLY|Rotation=270.000|XOffset=0mil|YOffset=0mil|HoleType=Round|Shape=RoundedRectangle|*
%AMROUNDEDRECTD129*
21,1,0.0592,0.0236,0,0,270.0*
21,1,0.0433,0.0395,0,0,270.0*
1,1,0.0159,-0.0118,-0.0217*
1,1,0.0159,-0.0118,0.0217*
1,1,0.0159,0.0118,0.0217*
1,1,0.0159,0.0118,-0.0217*
%
%ADD129ROUNDEDRECTD129*%
%ADD130R,0.0867X0.0789*%
%ADD131R,0.0178X0.0690*%
%ADD132C,0.0340*%
D36*
X29528Y36417D02*
X43307D01*
Y22638D02*
Y36417D01*
X29528Y22638D02*
Y36417D01*
Y22638D02*
X43307D01*
D42*
X32543Y27133D02*
X34513D01*
X32543D02*
Y29103D01*
X34513D01*
Y27133D02*
Y29103D01*
X32877D02*
X32997D01*
X32877D02*
X32997D01*
X33074D02*
X33194D01*
X33074D02*
X33194D01*
X33271D02*
X33391D01*
X33271D02*
X33391D01*
X33468D02*
X33588D01*
X33468D02*
X33588D01*
X33664D02*
X33784D01*
X33664D02*
X33784D01*
X33861D02*
X33981D01*
X33861D02*
X33981D01*
X34058D02*
X34178D01*
X34058D02*
X34178D01*
X34513Y28648D02*
Y28768D01*
Y28648D02*
Y28768D01*
Y28451D02*
Y28572D01*
Y28451D02*
Y28572D01*
Y28255D02*
Y28375D01*
Y28255D02*
Y28375D01*
Y28058D02*
Y28178D01*
Y28058D02*
Y28178D01*
Y27861D02*
Y27981D01*
Y27861D02*
Y27981D01*
Y27664D02*
Y27784D01*
Y27664D02*
Y27784D01*
Y27467D02*
Y27587D01*
Y27467D02*
Y27587D01*
X34058Y27133D02*
X34178D01*
X34058D02*
X34178D01*
X33861D02*
X33981D01*
X33861D02*
X33981D01*
X33664D02*
X33784D01*
X33664D02*
X33784D01*
X33468D02*
X33588D01*
X33468D02*
X33588D01*
X33271D02*
X33391D01*
X33271D02*
X33391D01*
X33074D02*
X33194D01*
X33074D02*
X33194D01*
X32877D02*
X32997D01*
X32877D02*
X32997D01*
X32543Y27467D02*
Y27587D01*
Y27467D02*
Y27587D01*
Y27664D02*
Y27784D01*
Y27664D02*
Y27784D01*
Y27861D02*
Y27981D01*
Y27861D02*
Y27981D01*
Y28058D02*
Y28178D01*
Y28058D02*
Y28178D01*
Y28255D02*
Y28375D01*
Y28255D02*
Y28375D01*
Y28451D02*
Y28572D01*
Y28451D02*
Y28572D01*
Y28648D02*
Y28768D01*
Y28648D02*
Y28768D01*
Y27633D02*
X33043Y27133D01*
D93*
X33678Y33283D02*
D03*
Y32693D02*
D03*
D95*
X36073Y29038D02*
D03*
X36782D02*
D03*
D101*
X39178Y27883D02*
D03*
Y28592D02*
D03*
X33778Y27842D02*
D03*
Y27133D02*
D03*
D102*
X32828Y32032D02*
D03*
Y31244D02*
D03*
X33578Y32032D02*
D03*
Y31244D02*
D03*
D104*
X30512Y35433D02*
D03*
X42323D02*
D03*
Y23622D02*
D03*
X30512D02*
D03*
D105*
X42558Y33978D02*
D03*
Y32978D02*
D03*
Y31978D02*
D03*
Y30978D02*
D03*
Y29978D02*
D03*
X31078Y33188D02*
D03*
X30078Y32188D02*
D03*
X31078D02*
D03*
X30078Y31188D02*
D03*
X31078D02*
D03*
X30078Y30188D02*
D03*
X31078D02*
D03*
X30078Y29188D02*
D03*
X31078D02*
D03*
X37698Y24328D02*
D03*
X38698Y23328D02*
D03*
Y24328D02*
D03*
X39698Y23328D02*
D03*
Y24328D02*
D03*
X40698Y23328D02*
D03*
Y24328D02*
D03*
D106*
X42558Y28978D02*
D03*
X30078Y33188D02*
D03*
D107*
X37698Y23328D02*
D03*
D108*
X33628Y32038D02*
D03*
X34828Y31388D02*
D03*
X31803Y26338D02*
D03*
X33628Y23438D02*
D03*
X29928Y25738D02*
D03*
X29878Y24488D02*
D03*
X29828Y34438D02*
D03*
X31678Y35038D02*
D03*
X36178Y35788D02*
D03*
X32278Y35888D02*
D03*
X40978Y34538D02*
D03*
X41028Y33238D02*
D03*
X38278Y33133D02*
D03*
X33432Y29738D02*
D03*
X33678Y33288D02*
D03*
X37928Y30538D02*
D03*
X36128Y23538D02*
D03*
X32628Y23388D02*
D03*
X36078Y29088D02*
D03*
X36028Y27938D02*
D03*
X37528Y29388D02*
D03*
X41178D02*
D03*
X36208Y31828D02*
D03*
X41668Y27618D02*
D03*
X41937Y27228D02*
D03*
X40518Y26441D02*
D03*
X40528Y27218D02*
D03*
X33178Y28038D02*
D03*
X33778D02*
D03*
X39128Y26288D02*
D03*
X40728Y25638D02*
D03*
X40028Y29288D02*
D03*
X39998Y28558D02*
D03*
D109*
X39878Y29788D02*
D03*
X36108Y27198D02*
D03*
D110*
X41478Y29038D02*
D03*
X40289Y29738D02*
D03*
X39878Y30538D02*
D03*
X38378Y34138D02*
D03*
X38092Y34463D02*
D03*
X32118Y28338D02*
D03*
Y27808D02*
D03*
X33798Y26548D02*
D03*
D111*
X30428Y26188D02*
D03*
X36198Y32888D02*
D03*
X36458Y32478D02*
D03*
X35838Y32508D02*
D03*
X34958Y32458D02*
D03*
X35285Y32282D02*
D03*
X34648Y32748D02*
D03*
X34348Y33038D02*
D03*
X39728Y27808D02*
D03*
X41398Y31988D02*
D03*
X32818Y25478D02*
D03*
X33328Y24728D02*
D03*
X33678Y32688D02*
D03*
X35158Y28478D02*
D03*
D112*
X35112Y26538D02*
D03*
X41208Y30048D02*
D03*
D113*
X34394Y23776D02*
D03*
Y24800D02*
D03*
X35261Y23776D02*
D03*
Y24800D02*
D03*
D114*
X34158Y24288D02*
D03*
X35497D02*
D03*
D115*
X41558Y29957D02*
D03*
Y31138D02*
D03*
X31928Y31147D02*
D03*
Y32328D02*
D03*
X36108Y27198D02*
D03*
Y26017D02*
D03*
D116*
X38759Y25318D02*
D03*
X37656D02*
D03*
D117*
X38760Y29867D02*
D03*
X34370Y31560D02*
D03*
D118*
X37283Y29867D02*
D03*
X38150D02*
D03*
X37717Y29871D02*
D03*
X36417Y29867D02*
D03*
X36850Y29863D02*
D03*
X35551Y29867D02*
D03*
X35984Y29863D02*
D03*
X35118D02*
D03*
X34685Y29867D02*
D03*
D119*
X34370Y34001D02*
D03*
D120*
X34406Y35635D02*
D03*
D121*
X39685Y35812D02*
D03*
D122*
X32490Y26781D02*
D03*
Y25994D02*
D03*
D123*
X30350Y27707D02*
D03*
Y25069D02*
D03*
D124*
X30087Y34038D02*
D03*
X31268D02*
D03*
D125*
X35222Y25865D02*
D03*
X34434D02*
D03*
Y27203D02*
D03*
X34631D02*
D03*
D126*
X35025Y25865D02*
D03*
X34828D02*
D03*
X34631D02*
D03*
D127*
X34828Y27203D02*
D03*
X35025D02*
D03*
X35222D02*
D03*
D128*
X34828Y26534D02*
D03*
D129*
X35481Y27968D02*
D03*
X34694D02*
D03*
D130*
X32578Y29668D02*
D03*
D131*
X32971Y28841D02*
D03*
X32774D02*
D03*
X32578D02*
D03*
X32381D02*
D03*
X32184D02*
D03*
X32971Y30495D02*
D03*
X32774D02*
D03*
X32578D02*
D03*
X32381D02*
D03*
X32184D02*
D03*
D132*
X32814Y29668D02*
D03*
X32341D02*
D03*
M02*
